<svg width="436" height="341" viewBox="0 0 436 341" fill="none" xmlns="http://www.w3.org/2000/svg">
<path d="M69.5339 192.5L51.0339 194L48.5339 174L69.5339 192.5Z" fill="white"/>
<path d="M48.5339 110L69.5339 185L45.5332 163L42.0332 162C38.2001 157.5 27.9339 144.7 17.5339 129.5C4.53386 110.5 -0.46614 89.5 0.0338597 70C0.53386 50.5 9.03386 34 24.5339 18C36.9339 5.2 69.0339 0.666667 83.5339 0C94.5339 0 120.634 5.2 137.034 26C157.534 52 156.034 100 153.034 110C150.034 120 136.534 143 133.534 150C131.134 155.6 131.201 166.333 131.534 171L112.034 162L113.534 104L116.534 76.5L110.034 80.5L105.534 160L63.5339 136L51.0339 106.5L48.5339 110Z" fill="white"/>
<path d="M88.5332 158C81.7332 154.8 70.3665 148.333 65.5332 145.5L78.0332 189H105.534V166C102.7 164.667 95.3332 161.2 88.5332 158Z" fill="white"/>
<path d="M111.033 187.5V168L131.534 174V187.5H111.033Z" fill="white"/>
<path d="M38.25 86.1265C38.25 89.3349 40.3919 92.0676 42.4784 94.27C44.4485 96.3496 46.4268 98.9848 49.0558 100.299C51.3904 101.467 53.5847 101.944 56.1901 101.944C57.8889 101.944 59.5676 101.915 61.2362 101.787C61.9897 101.729 63.2031 101.035 63.768 100.56C65.0118 99.5155 66.3741 98.6214 67.6223 97.5935C68.2874 97.0457 68.8428 96.3429 69.5363 95.836C71.372 94.4946 72.7307 91.9537 73.0078 89.7371C73.1473 88.621 73.2052 87.4096 73.1731 86.2831C73.1337 84.9043 71.6045 83.673 70.7022 82.803C69.8283 81.9604 68.5913 81.5388 67.37 81.437C65.2233 81.2581 63.3337 81.2613 62.376 83.4642C61.4631 85.5638 60.646 88.7204 61.4624 90.9813C62.4882 93.8218 63.6689 96.6413 65.5081 99.0552C67.0086 101.025 68.9501 101.313 71.1372 101.944C73.524 102.631 76.5225 102.694 78.8805 101.978C84.5793 100.25 89.3014 96.0776 92.2442 91.0161C93.3064 89.1889 93.3139 87.5736 93.758 85.5436C94.1642 83.6866 94.2166 81.3204 93.7667 79.4708C93.3813 77.8861 92.7933 75.5363 91.3741 74.5377C89.9626 73.5444 88.1331 73.6665 86.7978 74.8683C83.9015 77.4749 81.0456 81.5954 81.16 85.6567C81.2124 87.5175 83.3408 89.1264 84.5531 90.2678C85.9623 91.5948 87.5077 92.8831 89.1468 93.922C91.9463 95.6963 95.3565 95.8727 98.4649 94.9747C99.9759 94.5382 101.446 94.1435 102.876 93.4783C105.399 92.3049 107.411 90.6528 109.34 88.6496C110.694 87.2435 112.478 85.5571 112.759 83.5164C112.894 82.5392 112.794 81.4772 112.794 80.4887" stroke="#FECE00" stroke-width="5" stroke-linecap="round"/>
<path d="M86.7108 74.2061C86.3589 74.2501 87.1965 75.5285 87.3017 75.6894C87.8401 76.5129 88.459 77.2167 89.2795 77.7637C92.16 79.6841 95.2158 81.168 98.7042 81.4781C100.375 81.6266 102.001 81.8768 103.679 81.9967C105.734 82.1434 107.774 82.5518 109.829 82.666C110.772 82.7184 111.731 82.672 112.675 82.672C113.146 82.672 113.87 82.647 114.225 82.2921C114.836 81.6814 115.079 80.5509 114.689 79.7415C113.943 78.1911 111.675 77.2342 110.209 76.5396C109.926 76.4055 109.607 76.2533 109.341 76.1055C109.236 76.0474 109.144 76.0512 109.027 76.0512C108.713 76.0512 109.655 76.1558 109.938 76.2924C113.821 78.1686 117.252 80.883 121.045 82.9253C122.37 83.6386 123.645 84.0366 125.133 84.1674C126.694 84.3047 127.968 83.9867 129.432 83.4378C131.496 82.664 133.791 81.312 135.01 79.4159C136.045 77.8057 135.326 75.8543 133.925 74.8031C131.112 72.6935 127.888 71.4963 124.723 70.0696C121.058 68.4179 117.423 66.603 114.026 64.4498C111.752 63.0086 110.043 60.9769 108.038 59.234C107.53 58.7923 106.658 57.9863 106.356 57.3828" stroke="#2C2F44" stroke-width="5" stroke-linecap="round"/>
<path d="M89.3147 61.6152C89.1059 61.6413 89.0358 62.6182 89.5318 62.5921C90.1227 62.561 90.7309 60.8555 89.9177 60.8555C88.9545 60.8555 88.8968 62.2866 89.2906 62.8694C89.5263 63.2183 90.2788 63.4375 90.6172 63.1348C91.1651 62.6445 90.4377 62.7006 90.0142 62.7006C89.36 62.7006 87.9854 62.9028 87.8012 63.7317C87.6055 64.6127 88.8951 65.1549 89.5921 64.9558C90.0638 64.821 90.2858 63.5322 90.2916 63.1348C90.3011 62.4763 90.2825 62.0169 89.4775 61.9469C89.0736 61.9117 88.5192 61.8493 88.1691 62.0494C87.8296 62.2433 88.0927 62.375 88.3379 62.375" stroke="#2C2F44" stroke-width="5" stroke-linecap="round"/>
<path d="M350.029 56.2598C350.238 56.2859 350.308 57.2627 349.812 57.2366C349.221 57.2055 348.613 55.5 349.426 55.5C350.389 55.5 350.447 56.9312 350.053 57.514C349.817 57.8628 349.065 58.0821 348.727 57.7793C348.179 57.289 348.906 57.3451 349.33 57.3451C349.984 57.3451 351.358 57.5474 351.543 58.3762C351.738 59.2573 350.449 59.7995 349.752 59.6003C349.28 59.4655 349.058 58.1767 349.052 57.7793C349.043 57.1208 349.061 56.6614 349.866 56.5914C350.27 56.5563 350.825 56.4939 351.175 56.6939C351.514 56.8879 351.251 57.0195 351.006 57.0195" stroke="#2C2F44" stroke-width="2" stroke-linecap="round"/>
<path d="M121.221 56.6246C121.109 57.1857 120.57 57.4035 120.57 58.0597C120.57 58.7429 120.771 59.1718 121.492 59.332C121.882 59.4185 121.47 59.2865 121.306 59.2537C120.854 59.1634 120.334 59.1208 119.907 58.9461C119.505 58.7817 118.462 58.3078 119.183 57.8185C119.683 57.4796 120.642 57.0109 119.533 56.7573C119.34 56.7132 119.079 56.7988 118.9 56.7271C118.498 56.5666 119.772 56.6062 120.196 56.691C121.01 56.8537 121.823 57.6927 121.975 58.5301C122.026 58.8119 121.923 59.4245 121.547 59.4466C121.036 59.4766 120.374 59.3071 119.919 59.0728C119.279 58.7436 119.159 58.3086 119.159 57.6557C119.159 57.0226 119.426 57.1415 119.858 56.7874C120.067 56.6164 120.818 56.3927 121.113 56.5402C121.589 56.7786 121.547 57.7053 121.547 58.1442C121.547 58.9177 120.786 59.7722 119.973 59.7722C119.746 59.7722 119.249 59.8678 119.075 59.6999C118.757 59.3943 118.616 58.7278 118.616 58.313C118.616 58.0197 118.44 56.7668 118.725 56.6246" stroke="#2C2F44" stroke-width="5" stroke-linecap="round"/>
<path d="M323.294 53.6324C323.407 54.1935 323.946 54.4113 323.946 55.0676C323.946 55.7508 323.744 56.1796 323.023 56.3399C322.634 56.4264 323.046 56.2943 323.21 56.2615C323.662 56.1712 324.182 56.1286 324.609 55.9539C325.011 55.7895 326.054 55.3156 325.333 54.8264C324.833 54.4874 323.873 54.0187 324.983 53.7651C325.176 53.721 325.437 53.8066 325.616 53.735C326.017 53.5744 324.743 53.614 324.32 53.6988C323.506 53.8615 322.693 54.7005 322.541 55.5379C322.489 55.8197 322.592 56.4323 322.969 56.4544C323.479 56.4844 324.141 56.3149 324.597 56.0806C325.237 55.7514 325.357 55.3164 325.357 54.6636C325.357 54.0304 325.09 54.1493 324.657 53.7953C324.448 53.6242 323.698 53.4005 323.403 53.548C322.926 53.7864 322.969 54.7132 322.969 55.152C322.969 55.9255 323.729 56.78 324.543 56.78C324.77 56.78 325.267 56.8756 325.441 56.7077C325.758 56.4021 325.899 55.7356 325.899 55.3208C325.899 55.0275 326.075 53.7746 325.791 53.6324" stroke="#2C2F44" stroke-width="2" stroke-linecap="round"/>
<path d="M315.031 74.5L289.531 102.54L319.153 142.58L341.5 166.5L345.657 164.94L419.453 67.18L421.531 60.42L393.468 36.5C386.886 43.9533 372.681 60.108 368.523 65.1C364.366 70.092 348.807 92.06 341.531 103.5L315.031 74.5Z" fill="#EE9133"/>
<path d="M332.563 61.3574C331.368 62.1892 330.782 62.8525 330.164 63.3921C329.588 63.895 329.209 64.3277 328.495 65.1197C326.79 67.0077 325.581 68.0713 324.982 68.8251C324.629 69.269 324.338 69.9638 323.188 71.3894C322.644 72.0653 322.455 72.707 322.259 73.4269C321.756 75.2755 321.94 75.7575 321.73 76.3048C321.603 76.6373 321.784 76.9823 321.972 77.225C322.16 77.4686 323.004 77.5422 324.682 77.4477C325.689 77.3911 326.995 77.102 328.028 76.8567C329.061 76.6114 329.778 76.3638 331.05 75.6999C332.322 75.0359 334.128 73.963 335.321 73.1919C337.853 71.5538 338.174 70.821 338.612 69.8872C338.917 69.2377 339.315 68.64 339.608 68.1425C339.904 67.6419 339.873 67.1534 340.103 66.8414C340.366 66.4845 339.82 67.9673 339.416 68.4812C338.9 69.138 338.803 69.9221 338.282 70.4516C337.829 70.9117 336.943 71.78 335.847 72.5319C334.729 73.2986 333.49 73.8613 332.836 74.2973C332.433 74.5661 332.605 75.1173 332.674 75.4282C332.745 75.7486 333.174 75.8644 334.335 76.1582C335.337 76.4122 337.205 76.7749 338.508 76.9876C339.811 77.2003 340.501 77.2254 342.172 76.9957C343.844 76.766 346.477 76.2808 347.985 75.9815C349.493 75.6822 349.796 75.5835 351.262 74.8773C352.728 74.1711 355.348 72.8604 356.8 72.1108C358.253 71.3611 358.46 71.2124 358.505 71.1492C358.549 71.0861 358.425 71.113 358.264 71.1347C358.104 71.1563 357.911 71.1718 357.712 71.1878" stroke="#2C2F44" stroke-width="5" stroke-linecap="round"/>
<path d="M58.5312 134C76.5312 144.898 118.731 168.355 143.531 175C174.531 183.306 209.031 186.5 215.031 190C221.031 193.5 225.031 198.5 220.031 200C217.258 200.832 210.333 200.28 204.031 199.367M204.031 199.367C198.971 198.634 194.313 197.668 192.531 197C188.531 195.5 182.531 215 190.531 213C194.133 212.099 197.376 209.122 199.85 206M204.031 199.367C203.23 201.062 201.772 203.575 199.85 206M41.5312 163.5C69.6979 187.667 108.031 220.5 192.531 236C197.759 236.959 207.031 236 204.031 233L183.031 222.5C188.031 225.667 200.231 231.6 209.031 230C217.831 228.4 214.198 225.833 212.531 224.5L190.531 215C198.198 218.5 214.831 224.9 220.031 222.5C225.231 220.1 208.744 210.5 199.85 206" stroke="#2C2F44" stroke-width="5" stroke-linecap="round"/>
<path d="M280.531 107C269.531 121.833 245.431 153.2 237.031 160C228.631 166.8 211.865 179.5 204.531 185" stroke="#2C2F44" stroke-width="5" stroke-linecap="round"/>
<path d="M282.532 150.5C276.532 160.667 263.532 182.3 259.532 187.5C254.532 194 224.032 231.5 222.032 233C220.032 234.5 217.032 239.5 212.032 238C209.531 237.25 210.865 232.5 212.032 231.5M214.531 204L210.031 209.5M223.031 211L219.031 215.5" stroke="#2C2F44" stroke-width="5" stroke-linecap="round"/>
<path d="M50.5338 195C47.8671 198.667 44.1338 206.3 50.5338 207.5C56.9338 208.7 106.199 204 130.031 201.5C133.698 199 138.831 192.8 130.031 188" stroke="#2C2F44" stroke-width="5" stroke-linecap="round"/>
<path d="M54.5308 207.5C50.8642 211.833 45.0308 221.2 51.0308 224C57.0308 226.8 106.531 220.5 130.531 217C135.198 213.5 141.331 205.5 128.531 201.5" stroke="#2C2F44" stroke-width="5" stroke-linecap="round"/>
<path d="M54.535 224.5C50.535 230.333 44.935 241.9 54.535 241.5C66.535 241 132.031 233.5 133.031 229C133.831 225.4 131.365 219.5 130.031 217" stroke="#2C2F44" stroke-width="5" stroke-linecap="round"/>
<path d="M55.0312 312.5L57.5312 242L80.0312 239C79.8646 251 79.6313 276.4 80.0312 282C80.4312 287.6 76.5312 304.667 74.5312 312.5H55.0312Z" stroke="#2C2F44" stroke-width="5" stroke-linecap="round"/>
<path d="M115.531 282C115.931 272.8 108.365 247.833 104.531 236.5L132.531 230C133.198 240.667 138.031 262 138.031 271.5C138.031 279.599 139.198 300.667 138.031 310.5L115.531 312.5C115.365 306.167 115.131 291.2 115.531 282Z" stroke="#2C2F44" stroke-width="5" stroke-linecap="round"/>
<path d="M392.531 178.5C394.131 182.5 389.531 242.167 387.031 271.5C387.031 273 387.731 276 390.531 276C393.331 276 394.698 274 395.031 273L396.531 254.5L397.531 279.5C397.031 281.333 397.031 285 401.031 285C406.031 285 406.531 281.5 406.531 280.5C406.531 279.7 405.865 264.167 405.531 256.5L408.531 281C408.865 282.333 410.031 285 412.031 285C414.031 285 414.865 282.667 415.031 281.5L416.531 255C417.576 262.833 420.038 278.6 421.531 279C423.024 279.4 423.487 277.5 423.531 276.5V126.5V178.5H429.031C431.198 128.667 434.731 28.2997 431.531 25.5C427.531 22.0004 405.531 22.4996 384.031 22.4996C362.531 22.4996 359.531 21.9996 333.531 22.4996C312.731 22.8996 291.198 26.9996 283.031 28.9996C282.365 54.9997 281.031 108 281.031 112C281.031 116 282.365 150.667 283.031 167.5C292.698 171.167 328.131 178.5 392.531 178.5ZM392.531 178.5C390.931 174.5 391.865 135.833 392.531 117" stroke="#2C2F44" stroke-width="5" stroke-linecap="round"/>
<path d="M75.1051 311.794C82.4002 315.563 84.8293 317.288 87.0514 318.945C89.7779 320.978 92.2052 321.94 94.7478 323.788C97.1211 325.513 96.8614 328.844 98.2954 330.652C98.9999 331.541 99.6574 332.818 99.9098 334.442C100.029 335.211 99.5247 335.906 98.1727 336.388C91.1607 338.89 84.2363 336.779 79.9833 335.893C76.5588 335.18 73.7603 332.637 71.5321 330.88C69.6405 329.389 68.9534 326.685 65.9533 324.171C65.2669 323.596 64.804 323.297 64.6912 323.5C63.6044 325.462 67.0075 327.236 68.085 329.893C68.444 330.778 68.231 332.079 67.9476 332.784C67.6643 333.489 67.0975 333.618 66.4158 333.616C63.4067 333.603 60.7274 332.569 58.4671 331.817C56.2683 331.085 56.4916 327.47 56.6669 320.219C56.7205 318.001 57.9928 316.682 58.5253 315.282C59.8379 314.687 61.494 314.595 64.7661 314.466C67.2587 314.337 71.4408 314.078 76.8225 314.385" stroke="#2C2F44" stroke-width="5" stroke-linecap="round"/>
<path d="M57.0625 322.879C65.1426 325.005 69.7299 326.598 70.338 327.033C70.4954 327.146 70.4508 326.336 69.883 325.63C69.3152 324.925 68.2523 324.169 67.7048 324.113C66.8895 324.029 67.5113 325.906 67.6934 326.802C68.2416 329.504 61.8008 327.228 59.7511 327.06C57.2739 326.857 64.5019 328.196 65.22 328.105C66.2947 327.968 62.5268 324.571 59.4089 322.439C59.1366 322.253 60.209 324.037 60.7811 324.553C60.9512 324.707 61.0706 323.737 61.3197 323.134C61.5688 322.531 61.9935 322.094 62.7794 322.067C64.7339 322.001 66.5062 322.828 67.4731 322.465C67.918 322.298 67.8018 321.456 68.3333 321.56C68.8647 321.665 69.9275 322.559 68.4907 322.131C62.8953 320.462 58.4288 317.96 58.0297 317.938C54.4152 317.736 65.9966 318.772 69.4379 319.144C69.8981 319.194 69.5971 318.482 69.6281 318.464C71.639 317.289 75.9407 320.977 79.4252 320.825C80.0276 320.799 79.6183 319.444 79.1901 318.849C78.7618 318.253 78.1236 318.024 77.4405 317.976C76.7574 317.928 76.0486 318.067 75.9668 318.566C75.7344 319.984 78.0279 321.267 79.8503 322.029C80.6631 322.37 81.3186 322.434 81.541 322.113C81.7634 321.791 81.5506 321.036 81.1577 320.568C80.7647 320.099 80.198 319.94 79.7643 320.146C79.3307 320.352 79.0473 320.928 79.1494 321.389C79.2514 321.851 79.7475 322.179 79.8614 321.93C79.9752 321.682 79.6919 320.847 79.2268 320.333C78.7618 319.818 78.1236 319.649 77.4405 319.596C76.7574 319.544 76.0486 319.614 75.6481 320.097C75.2476 320.58 75.177 321.475 75.4239 322.273C75.9215 323.882 77.6724 324.842 79.3513 325.533C80.9007 326.172 82.3287 326.221 83.5065 326.063C84.1402 325.978 84.7556 325.467 85.0843 324.725C85.4131 323.983 85.4131 322.919 84.6689 322.222C82.8851 320.552 80.1944 320.98 78.8014 321.288C78.0905 321.446 77.4791 321.975 77.115 322.504C76.4255 323.505 76.6075 324.89 77.1035 326.207C78.6967 330.435 84.1153 329.734 85.8288 329.866C86.6905 329.932 87.5431 329.58 88.0167 328.88C88.4903 328.18 88.561 327.038 88.1723 326.24C87.4121 324.68 84.8528 324.287 82.3891 323.78C79.891 323.267 77.6889 323.897 76.3655 324.963C75.7772 325.437 75.8215 326.237 76.0332 327.033C76.2448 327.828 76.7409 328.713 77.4569 329.268C78.1728 329.823 79.0936 330.023 79.6037 329.738C80.1137 329.453 80.1851 328.678 79.7611 327.99C77.4705 324.275 70.1254 323.778 66.4488 324.054C65.8617 324.098 65.9409 325.113 66.3299 325.71C69.326 330.303 77.8895 329.113 79.068 328.889C79.6549 328.777 80.0345 328.099 80.0056 327.584C79.8324 324.496 73.1876 324.207 71.0265 324.156C63.635 323.979 91.7018 330.928 93.5973 330.976C94.3714 330.995 94.7126 330.357 94.5406 329.888C94.1033 328.694 92.1501 328.272 91.4298 328.313C89.9696 328.397 94.8482 330.586 96.4297 330.834C97.846 331.057 92.5834 329.465 90.8999 329.598C90.3817 329.638 90.7053 330.277 91.0997 330.409C91.494 330.541 91.9901 330.313 92.1393 330.478C92.2885 330.644 92.0758 331.21 91.6472 331.626C90.7452 332.501 89.2142 332.656 88.601 332.941C87.6054 333.405 92.7646 333.612 95.9518 333.268C96.9969 333.156 96.6585 332.2 94.2445 331.265C87.4827 328.645 81.0617 327.96 79.1601 328.196C78.8174 328.503 79.7382 329.189 80.7087 329.666C81.6791 330.144 82.6713 330.392 83.9098 330.379" stroke="#2C2F44" stroke-width="5" stroke-linecap="round"/>
<path d="M116.56 312.186C116.347 315.924 115.631 318.507 115.307 321.865C114.914 325.94 115.129 329.107 115.091 330.203C115.049 331.419 120.806 331.526 128.215 330.65C130.763 330.349 130.734 329.586 130.628 328.961C130.187 326.374 129.875 321.24 131.12 317.844C132.38 314.406 137.878 317.673 141.817 319.107C144.509 320.087 145.472 323.446 148.369 325.387C151.094 327.212 154.978 328.07 158.358 328.891C161.148 329.568 163.877 327.85 164.628 327.166C164.99 326.837 164.884 326.192 164.6 325.607C162.767 321.823 156.521 320.355 148.341 316.898C144.922 315.453 142.345 314.059 139.802 312.753C137.79 311.719 132.492 311.556 128.925 311.428C118.013 311.037 143.259 314.21 144.152 315.126C144.624 315.609 144.833 316.388 144.624 316.846C143.281 319.798 136.483 317.459 134.388 317.176C131.563 316.793 139.746 320.04 141.11 321.887C142.453 323.706 144.969 324.598 147.584 325.71C149.872 326.684 154.613 327.103 157.826 326.577C158.336 326.493 158.436 325.729 158.297 325.215C156.876 319.946 145.202 320.802 144.094 320.316C140.945 318.936 159.282 323.825 161.728 325.062C162.062 325.231 161.456 325.821 160.954 326.13C158.567 327.599 154.661 326.415 151.512 324.753C144.985 321.307 139.274 320.307 136.613 319.097C133.649 317.75 130.82 316.068 128.31 314.609C124.247 312.249 117.925 313.751 117.101 314.299C114.224 316.212 113.625 320.776 114.012 325.819C114.296 329.517 123.402 321.685 125.577 319.702C127.389 318.051 125.294 324.951 124.974 325.545C123.878 327.578 123.72 320.846 123.186 319.549C122.906 318.869 122.156 318.381 121.544 318.05C120.931 317.719 120.365 317.619 120.073 317.961C118.388 319.93 120.42 322.719 121.278 324.197C121.654 324.847 122.135 325.149 122.354 324.618C122.573 324.086 122.573 322.675 122.36 321.675C122.148 320.675 121.722 320.128 121.113 320.2C120.505 320.271 119.725 320.977 119.217 321.684C118.709 322.39 118.497 323.076 118.777 323.26C121.178 324.839 122.786 319.45 123.002 319.079C124.366 316.736 122.999 324.005 123.891 325.333C124.287 325.922 124.854 326.115 125.393 325.866C126.749 325.238 127.225 323.507 127.44 322.246C127.556 321.567 127.513 320.786 127.194 320.371C126.875 319.957 126.237 319.927 125.873 320.19C125.121 320.733 125.366 323.024 125.472 324.835C125.495 325.218 125.791 324.459 125.546 323.822C125.301 323.185 124.593 322.678 123.944 322.819C122.438 323.147 122.001 325.191 121.787 325.678C120.694 328.162 124.278 319.8 127.31 317.716C130.611 315.448 134.093 317.264 135.023 317.788C136.008 318.343 135.249 320.04 134.817 321.232C133.945 323.638 138.815 324.756 141.035 326.316C143.488 328.04 146.829 329.308 150.791 330.004C152.961 330.205 156.718 330.483 158.936 330.531C161.155 330.58 161.722 330.391 162.522 329.895" stroke="#2C2F44" stroke-width="5" stroke-linecap="round"/>
<path d="M284.3 293.753C280.654 297.283 278.798 299.005 276.611 300.834C274.294 302.772 272.496 305.28 270.775 306.933C268.801 308.829 268.196 311.252 266.16 312.824C264.19 314.345 262.474 316.135 260.502 317.627C259.563 318.338 258.887 319.299 258.457 320.529C258.217 321.217 258.311 322.138 258.595 322.668C260.45 326.138 269.884 323.204 274.191 322.07C277.474 321.206 280.065 318.659 281.788 316.937C283.922 314.803 285.795 312.535 287.729 310.947C289.746 309.29 291.808 308.187 293.601 306.641C295.487 305.014 295.178 302.183 296.034 300.951C296.454 300.347 297.174 300.056 297.715 300.16C300.174 300.631 299.549 304.953 299.906 307.632C300.373 311.132 301.76 313.3 302.521 315.262C302.654 315.606 301.71 315.678 301.098 315.57C299.867 315.353 299.122 314.261 298.942 313.695C298.931 313.663 299.257 314.323 299.686 314.735C302.418 317.354 309.979 315.081 312.43 313.963C315.574 312.53 312.156 306.113 310.615 303.986C309.086 301.877 309.286 299.432 308.753 298.363C307.41 295.671 299.373 297.304 289.809 295.987C288.028 295.742 287.462 295.604 286.886 296.029C284.036 298.135 279.896 301.82 275.934 305.848C273.261 308.564 272.921 311.232 270.636 313.527C267.605 316.57 264.974 319.08 264.011 319.702C261.795 321.133 276.061 316.336 276.353 316.048C276.549 315.855 274.945 316.308 274.29 316.073C273.635 315.838 273.493 315.093 273.951 314.44C276.462 310.864 283.55 309.943 288.314 307.489C289.407 306.925 285.477 308.096 282.17 309.321C281.849 309.44 284.816 306.909 285.922 306.22C287.028 305.532 286.319 306.347 285.706 306.921C285.093 307.495 284.597 307.803 284.27 307.574C283.944 307.345 283.802 306.57 283.977 305.753C284.35 304.01 285.442 302.684 285.694 302.263C285.766 302.144 285.309 303.244 285.34 303.306C285.37 303.369 285.795 302.623 285.837 303.054C285.879 303.485 285.524 305.115 287.078 304.668C288.632 304.221 292.105 301.647 293.575 300.489C295.046 299.332 294.408 299.67 293.724 300.138C290.709 302.2 289.172 304.441 288.562 304.761C287.904 305.107 289.662 302.825 291.019 301.723C296.151 297.553 306.834 298.366 309.702 299.843C312.516 301.293 314.149 303.577 314.404 304.121C314.85 305.073 311.091 302.425 308.87 301.763C308.23 301.572 308.492 302.82 308.922 303.59C309.352 304.36 309.919 304.907 310.282 305.606C310.645 306.304 310.787 307.139 310.151 307.386C308.233 308.129 305.574 306.438 303.714 305.919C302.945 305.704 302.422 306.166 302.273 306.608C302.124 307.05 302.337 307.606 302.198 307.56C302.06 307.514 301.564 306.849 301.698 306.61C302.146 305.813 303.982 307.351 304.664 307.747C305.6 308.29 304.059 305.194 304.059 304.594C304.059 302.61 305.775 308.737 306.133 309.097C306.288 309.254 306.348 308.056 306.42 308.466C306.492 308.875 306.564 310.595 305.856 310.621C305.148 310.647 303.659 308.927 302.822 307.49C301.984 306.053 301.843 304.95 302.337 304.869C307.251 304.063 307.423 312.301 307.708 312.583C307.935 312.807 307.994 311.146 308.28 310.765C308.565 310.385 308.99 310.812 309.493 310.779C309.995 310.745 310.562 310.239 311.147 309.717" stroke="#2C2F44" stroke-width="5" stroke-linecap="round"/>
<path d="M287.74 299.361C286.658 299.832 285.576 300.302 285.627 300.376C285.677 300.449 286.893 300.112 288.145 299.764" stroke="#2C2F44" stroke-width="5" stroke-linecap="round"/>
<path d="M285.052 304.36C283.545 304.976 282.038 305.591 281.748 305.748C279.815 306.792 284.732 304.563 284.721 304.726C284.6 306.541 283.813 306.983 283.709 306.98C283.139 306.964 283.567 305.814 283.305 305.543C282.881 305.106 281.902 305.378 280.953 305.55C279.775 305.765 278.807 306.498 278.078 307.073C277.431 307.584 276.976 308.013 276.706 308.134C276.637 308.166 276.679 307.999 277.056 307.671C277.434 307.342 278.138 306.823 280.787 305.495C283.435 304.167 288.004 302.046 290.389 300.918C292.774 299.789 292.834 299.715 292.817 299.656C292.774 299.509 292.396 299.477 291.894 299.424C291.226 299.354 290.117 299.983 288.861 301.118C287.838 302.042 287.46 303.115 286.96 304.046C286.668 304.587 286.143 305.176 285.619 305.71C285.095 306.243 284.548 306.679 283.172 307.512C281.796 308.344 279.609 309.559 278.372 310.272C277.136 310.985 276.917 311.159 276.774 311.308C276.631 311.456 276.571 311.574 276.606 311.744C276.786 312.609 277.085 313.61 276.901 314.63C276.862 314.851 276.852 315.07 276.9 315.232C276.988 315.524 277.292 315.635 277.525 315.698C277.728 315.752 278.065 315.658 278.615 315.476C279.351 315.232 280.867 314.344 282.567 313.27C283.166 312.893 283.162 312.756 283.089 312.658C282.605 312.006 281.031 312.556 279.115 313.316C277.7 313.878 275.473 315.001 274.108 315.701C272.743 316.402 272.33 316.699 271.722 317.053C271.114 317.408 270.324 317.812 268.562 318.45C266.8 319.087 264.09 319.946 262.651 320.415C261.119 320.914 260.675 321.146 259.8 321.477C258.667 321.905 257.861 322.103 257.707 322.24C257.647 322.294 257.736 322.398 257.846 322.443C258.114 322.494 258.581 322.47 259.691 322.262C260.498 322.083 261.799 321.754 262.991 321.26" stroke="#2C2F44" stroke-width="5" stroke-linecap="round"/>
<path d="M298.305 304.867C298.906 305.663 298.931 307.565 298.723 308.77C298.641 309.244 298.453 309.715 298.427 310.55C298.386 311.898 298.598 313.881 298.831 313.986C298.949 314.039 299.088 314.046 299.205 314.045C299.323 314.043 299.42 314.021 299.476 313.917C299.532 313.813 299.544 313.627 299.557 313.436" stroke="#2C2F44" stroke-width="5" stroke-linecap="round"/>
<path d="M303.87 301.546C303.675 301.74 303.481 301.934 303.544 302.039C304.143 303.016 305.66 301.963 305.802 301.891C306.72 301.423 302.927 302.234 302.68 302.371C302.676 302.435 302.919 302.488 303.895 302.384C304.871 302.28 306.573 302.018 308.326 301.696" stroke="#2C2F44" stroke-width="5" stroke-linecap="round"/>
<path d="M308.953 297.047C312.844 297.291 313.212 297.358 313.372 297.505C313.691 297.801 313.324 298.425 313.317 299.62C313.311 300.637 313.239 301.906 313.121 302.382C313.003 302.861 313.677 303.337 314.444 303.85C314.613 303.963 314.709 304.055 314.777 304.163C315.234 304.886 314.968 306.173 315.073 306.563C315.182 306.973 315.239 307.394 315.215 308.137C315.191 308.874 314.249 309.456 313.127 310.465C312.09 311.396 311.287 311.936 310.362 312.271C309.542 312.567 307.978 313.026 306.624 313.368C304.183 313.984 302.829 314.093 302.48 314.069C302.205 314.05 302.03 313.866 301.913 313.702C301.853 313.618 301.857 313.492 301.894 313.388C301.969 313.173 302.188 313.036 302.408 312.917C302.696 312.76 303.278 312.791 304.444 312.685C306.485 312.498 307.908 312.083 308.281 311.785C309.15 311.093 309.576 310.07 309.757 309.163C309.482 308.411 308.943 307.646 308.757 306.73C308.709 306.576 308.611 306.541 308.511 306.504" stroke="#2C2F44" stroke-width="5" stroke-linecap="round"/>
<path d="M367.413 299.183C367.679 298.91 367.826 298.542 367.821 298.161C367.815 297.78 367.659 297.416 367.386 297.15C367.113 296.885 366.745 296.738 366.364 296.743C365.983 296.748 365.619 296.905 365.353 297.178C365.353 297.178 365.353 297.178 365.353 297.178C362.884 299.724 360.431 302.411 358.465 305.515C358.409 305.602 358.352 305.691 358.297 305.778C358.296 305.78 358.295 305.782 358.294 305.783C356.785 308.177 354.893 310.306 352.959 312.431C352.832 312.571 352.707 312.708 352.578 312.848C350.254 315.587 350.698 318.772 349.651 319.657C349.601 319.715 349.549 319.769 349.493 319.822C347.52 321.756 347.33 324.371 347.496 326.414C347.725 328.548 348.166 330.374 349.336 332.457C349.442 332.623 349.562 332.815 349.791 333.068C351.544 334.759 353.286 334.516 354.599 334.478C355.96 334.363 357.182 334.07 358.372 333.739C360.743 333.065 362.964 332.187 365.152 331.345C365.314 331.283 365.478 331.22 365.635 331.159C369.046 329.823 370.551 326.75 372.017 324.566C372.136 324.385 372.256 324.205 372.375 324.033C374.284 321.454 375.442 318.109 375.812 314.979C375.857 314.645 375.897 314.315 375.932 313.979C376.141 311.345 377.782 309.411 380.215 307.991C380.542 307.792 380.88 307.6 381.225 307.413C381.262 307.39 381.255 307.426 381.079 307.439C380.904 307.461 380.61 307.326 380.546 307.247C380.417 307.094 380.558 307.297 380.597 307.522C380.71 307.996 380.768 308.645 380.81 309.283C380.907 310.592 380.885 311.926 381.215 313.509C381.266 313.729 381.328 313.96 381.416 314.202C382.171 316.045 383.594 316.639 384.66 317.208C384.87 317.311 385.078 317.406 385.283 317.498C387.048 318.276 388.716 317.79 389.93 317.487C390.173 317.423 390.408 317.363 390.634 317.31C391.001 317.225 391.623 317.105 392.225 316.731C392.833 316.365 393.297 315.784 393.563 315.253C393.736 314.914 393.854 314.586 393.948 314.266C395.319 309.903 395.567 304.406 393.467 300.183C393.372 299.938 393.292 299.709 393.253 299.546C392.613 296.341 389.23 294.428 386.613 294.101C383.884 293.655 381.288 293.897 378.762 294.302C376.238 294.724 373.793 295.365 371.386 296.172C370.184 296.578 368.999 297.023 367.816 297.54C367.233 297.796 366.646 298.069 366.04 298.393C365.905 298.465 365.732 298.561 365.582 298.648C365.43 298.737 365.289 298.822 365.114 298.937C364.946 299.048 364.807 299.142 364.597 299.31C364.497 299.393 364.424 299.454 364.298 299.579C364.163 299.718 364.021 299.874 363.877 300.126C363.808 300.248 363.739 300.37 363.672 300.491C360.825 305.761 358.519 310.698 354.277 314.331C354.273 314.335 354.268 314.339 354.263 314.344C353.918 314.664 353.649 315.078 353.402 315.61C353.282 315.894 353.149 316.144 353.051 316.716C353.031 316.868 353.012 317.047 353.05 317.313C353.086 317.568 353.222 317.954 353.521 318.236C354.174 318.798 354.655 318.668 354.897 318.661C354.93 318.657 354.962 318.653 354.993 318.648C358.088 317.953 359.915 315.993 361.942 314.891C361.993 314.862 362.045 314.836 362.096 314.814C362.242 314.748 362.384 314.703 362.486 314.691C362.581 314.676 362.657 314.721 362.488 314.765C362.318 314.833 361.864 314.633 361.79 314.528C361.687 314.428 361.707 314.459 361.725 314.527C361.736 314.563 361.75 314.61 361.765 314.665C362.017 315.749 362.283 317.253 362.455 318.811C362.477 318.967 362.483 319.115 362.529 319.357C362.556 319.468 362.569 319.567 362.675 319.782C362.733 319.882 362.797 320.031 363.056 320.239C363.289 320.47 364.002 320.6 364.353 320.413C364.696 320.267 364.817 320.111 364.907 320.018C365 319.913 365.05 319.838 365.092 319.772C365.177 319.639 365.225 319.538 365.269 319.443C365.353 319.253 365.406 319.089 365.445 318.896C365.475 318.692 365.526 318.522 365.432 318.079C365.365 317.89 365.308 317.414 364.58 317.045C363.966 316.807 363.664 316.963 363.496 317.003C363.319 317.065 363.231 317.119 363.15 317.167C362.999 317.262 362.914 317.338 362.836 317.408C362.686 317.547 362.583 317.668 362.489 317.774C362.397 317.88 362.314 317.972 362.266 318.023C362.24 318.09 362.145 318.018 362.604 318.047C362.66 318.057 362.725 318.074 362.788 318.101C363.176 318.293 363.166 318.445 363.184 318.44C363.191 318.448 363.177 318.392 363.168 318.324C363.149 318.184 363.137 317.985 363.128 317.777C363.101 317.346 363.12 316.9 362.944 316.247C362.937 316.22 362.928 316.193 362.919 316.165C362.783 315.725 362.424 315.028 361.634 314.719C360.856 314.43 360.226 314.628 359.794 314.811C359.743 314.834 359.693 314.857 359.644 314.882C358.157 315.722 357.644 316.896 357.166 318.126C357.142 318.199 357.12 318.261 357.089 318.383C357.08 318.421 357.07 318.462 357.059 318.531C357.053 318.605 357.022 318.667 357.064 318.953C357.065 318.952 357.085 319.123 357.192 319.324C357.289 319.524 357.568 319.84 357.962 319.944C358.352 320.05 358.658 319.951 358.819 319.879C358.931 319.826 358.948 319.811 358.997 319.78C359.158 319.67 359.209 319.603 359.256 319.553C359.446 319.315 359.404 319.344 359.446 319.284C359.49 319.212 359.521 319.16 359.552 319.11C359.612 319.01 359.669 318.921 359.726 318.836C359.841 318.664 359.957 318.506 360.074 318.363C360.188 318.222 360.31 318.089 360.388 318.034C360.418 318.011 360.467 317.999 360.352 318.105C360.282 318.15 360.184 318.282 359.738 318.346C359.518 318.373 359.202 318.323 358.974 318.2C358.727 318.068 358.616 317.943 358.523 317.829C358.314 317.521 358.409 317.641 358.409 317.699C358.643 318.755 358.643 320.245 359.056 321.995C359.103 322.165 359.159 322.344 359.259 322.563C359.336 322.723 359.428 322.905 359.627 323.134C359.815 323.354 360.203 323.663 360.708 323.733C361.764 323.811 362.07 323.351 362.313 323.172C362.76 322.729 362.943 322.388 363.165 322.047C363.217 321.963 363.27 321.88 363.324 321.798C363.771 321.117 364.207 320.445 364.652 319.794C365.65 318.341 366.726 316.894 367.926 316.044L367.242 316.279C367.196 316.281 367.149 316.281 367.089 316.274C366.887 316.258 366.631 316.112 366.531 315.99C366.423 315.866 366.408 315.795 366.404 315.77C366.402 315.722 366.442 315.802 366.463 315.896C366.511 316.091 366.526 316.384 366.514 316.599C366.513 316.618 366.513 316.635 366.512 316.651C366.503 316.774 366.553 316.806 366.537 316.911C366.522 317.013 366.398 317.162 366.226 317.296C365.875 317.57 365.4 317.818 364.93 318.017C364.903 318.029 364.878 318.055 364.86 318.084C364.843 318.113 364.834 318.143 364.837 318.173C364.84 318.202 364.854 318.23 364.876 318.256C364.899 318.281 364.928 318.302 364.957 318.308C364.957 318.308 364.957 318.308 364.957 318.308C365.469 318.413 365.973 318.558 366.576 318.579C366.877 318.584 367.223 318.557 367.606 318.369C367.992 318.186 368.333 317.797 368.505 317.464C368.53 317.419 368.552 317.376 368.573 317.331C368.805 316.846 368.937 316.392 368.974 315.845C368.986 315.568 368.985 315.273 368.858 314.874C368.789 314.675 368.687 314.436 368.451 314.177C368.225 313.918 367.796 313.68 367.409 313.643C367.294 313.629 367.197 313.627 367.095 313.633L366.72 313.654L366.412 313.868C364.627 315.164 363.54 316.76 362.462 318.298C361.994 318.983 361.548 319.67 361.107 320.342C361.054 320.422 360.999 320.503 360.944 320.581C360.778 320.822 360.558 321.059 360.483 321.087C360.472 321.091 360.472 321.074 360.55 321.027C360.621 320.986 360.825 320.884 361.154 320.928C361.486 320.972 361.721 321.173 361.796 321.259C361.881 321.355 361.889 321.384 361.894 321.385C361.897 321.386 361.882 321.337 361.869 321.272C361.66 320.191 361.759 318.738 361.397 316.958C361.322 316.727 361.336 316.539 360.952 315.99C360.823 315.828 360.68 315.671 360.381 315.511C360.107 315.364 359.737 315.304 359.463 315.336C358.91 315.411 358.717 315.6 358.561 315.708C358.276 315.944 358.186 316.095 358.084 316.241C357.899 316.525 357.798 316.755 357.697 316.985C357.599 317.212 357.515 317.429 357.431 317.637C357.39 317.739 357.348 317.842 357.309 317.932C357.291 317.975 357.269 318.022 357.263 318.039C357.275 318.029 357.209 318.103 357.366 317.906C357.407 317.862 357.454 317.8 357.611 317.692C357.659 317.662 357.675 317.647 357.786 317.595C357.945 317.524 358.249 317.425 358.637 317.531C359.029 317.634 359.307 317.949 359.403 318.147C359.51 318.346 359.528 318.514 359.53 318.512C359.569 318.79 359.539 318.839 359.536 318.894C359.529 318.943 359.524 318.957 359.522 318.964C359.516 318.983 359.525 318.948 359.534 318.921C359.781 318.191 360.419 317.399 360.824 317.231C360.836 317.226 360.846 317.221 360.856 317.216C360.947 317.169 360.929 317.235 360.7 317.156C360.464 317.053 360.449 316.894 360.494 316.994C360.496 316.999 360.499 317.005 360.502 317.012C360.579 317.203 360.67 317.64 360.759 318.08C360.806 318.306 360.852 318.546 360.93 318.834C360.97 318.98 361.015 319.138 361.109 319.347C361.214 319.539 361.326 319.898 361.92 320.178C362.018 320.219 362.121 320.248 362.215 320.264C362.989 320.338 363.193 320.108 363.434 320.025C363.656 319.917 363.825 319.825 363.982 319.741C364.137 319.659 364.279 319.584 364.381 319.54C364.429 319.519 364.473 319.505 364.458 319.524C364.447 319.534 364.427 319.554 364.326 319.591C364.23 319.609 364.011 319.748 363.47 319.542C363.163 319.409 362.978 319.177 362.899 319.041C362.812 318.892 362.79 318.803 362.773 318.739C362.724 318.493 362.761 318.527 362.765 318.522C362.775 318.528 362.782 318.559 362.799 318.559C362.808 318.558 362.818 318.551 362.853 318.505C362.871 318.482 362.894 318.449 362.953 318.384C363.013 318.328 363.095 318.21 363.392 318.082C363.551 318.018 363.78 317.974 364.018 318.012C364.255 318.048 364.439 318.153 364.547 318.237C364.766 318.415 364.801 318.519 364.835 318.578C364.891 318.702 364.877 318.713 364.874 318.72C364.855 318.716 364.824 318.607 364.811 318.506C364.654 317.184 364.979 315.763 364.672 313.999C364.646 313.878 364.616 313.758 364.573 313.623C364.487 313.368 364.376 313.077 364.06 312.708C363.78 312.332 362.993 311.957 362.479 312.035C361.498 312.178 361.31 312.519 360.965 312.69C360.904 312.728 360.842 312.764 360.779 312.799C358.48 314.128 356.466 315.747 354.572 316.014C354.579 316.013 354.587 316.011 354.597 316.01C354.637 316.005 354.701 315.994 354.836 316.012C354.964 316.03 355.206 316.094 355.435 316.311C355.665 316.526 355.765 316.818 355.789 316.978C355.816 317.148 355.807 317.233 355.807 317.292C355.794 317.49 355.862 317.407 355.955 317.377C356.146 317.283 356.413 317.147 356.631 316.955C356.636 316.95 356.641 316.945 356.646 316.941C361.346 312.947 364.1 307.079 366.713 302.18C366.777 302.064 366.842 301.948 366.907 301.831C366.729 302.111 366.751 302.025 366.796 302.001C366.853 301.953 366.929 301.898 367.025 301.834C367.228 301.699 367.451 301.569 367.687 301.44C368.174 301.174 368.693 300.924 369.214 300.689C370.276 300.211 371.377 299.78 372.493 299.385C374.731 298.598 377.021 297.956 379.325 297.529C383.693 296.692 389.508 296.629 390.299 300.295C390.402 300.688 390.524 301.001 390.638 301.291C392.563 305.216 392.292 309.269 391.09 313.439C391.038 313.621 390.978 313.78 390.915 313.905C390.656 314.303 390.8 314.303 389.925 314.557C389.678 314.626 389.441 314.694 389.212 314.754C388.037 315.079 387.056 315.187 386.483 314.883C386.299 314.797 386.121 314.71 385.948 314.622C385.027 314.175 384.278 313.547 384.206 313.202C384.174 313.11 384.139 312.985 384.108 312.849C383.878 311.791 383.813 310.408 383.663 309.033C383.583 308.334 383.509 307.626 383.28 306.798C383.14 306.379 383.056 305.907 382.452 305.277C382.148 304.959 381.522 304.679 381.01 304.715C380.487 304.74 380.179 304.896 379.904 305.045C379.538 305.255 379.172 305.471 378.805 305.698C376.125 307.189 373.473 310.283 373.297 313.705C373.265 314.015 373.229 314.318 373.188 314.622C372.817 317.527 371.826 320.079 370.053 322.367C369.909 322.561 369.77 322.756 369.636 322.948C368.028 325.315 366.561 327.537 364.548 328.162C364.387 328.217 364.221 328.274 364.057 328.33C361.849 329.085 359.655 329.799 357.49 330.297C356.413 330.542 355.334 330.734 354.357 330.779C353.395 330.861 352.504 330.566 352.574 330.512C352.628 330.574 352.578 330.515 352.544 330.458C351.217 328.085 350.511 323.783 352.023 322.42C352.167 322.277 352.301 322.131 352.429 321.975C354.632 318.874 353.92 316.179 355.097 315.066C355.223 314.916 355.346 314.77 355.472 314.62C357.375 312.342 359.138 309.879 360.729 307.314C360.73 307.312 360.731 307.311 360.732 307.309C360.783 307.227 360.835 307.144 360.887 307.063C362.688 304.217 364.992 301.679 367.413 299.183Z" fill="#2C2F44"/>
<path d="M364.345 312.646C364.289 312.303 364.099 311.997 363.817 311.795C363.535 311.592 363.184 311.51 362.842 311.566C362.499 311.622 362.193 311.812 361.991 312.094C361.788 312.376 361.706 312.727 361.762 313.069C361.762 313.069 361.762 313.069 361.762 313.069C361.986 314.334 362.107 315.518 362.586 317.004C362.595 317.027 362.604 317.05 362.613 317.073C362.7 317.27 362.836 317.469 363.06 317.691C363.277 317.906 363.681 318.201 364.147 318.25C364.606 318.296 364.873 318.161 365.071 318.107C365.107 318.096 365.141 318.085 365.174 318.074C366.675 317.542 367.598 316.338 368.198 315.111C368.22 315.065 368.242 315.019 368.264 314.972C368.66 314.052 368.487 313.198 368.303 312.469C368.288 312.411 368.271 312.352 368.254 312.295C367.795 310.756 366.478 309.726 365.27 309.091C365.202 309.055 365.134 309.019 365.066 308.985C363.939 308.425 362.479 308.212 361.115 308.893C361 308.952 360.886 309.017 360.773 309.092C359.58 309.95 359.542 311.137 359.51 311.854C359.504 312.627 359.622 313.29 359.751 313.901C359.767 313.977 359.785 314.051 359.804 314.121C359.86 314.589 360.448 315.287 360.941 315.409C361.42 315.567 361.707 315.518 361.938 315.489C362.389 315.41 362.659 315.28 362.934 315.162C363.024 315.122 363.111 315.08 363.195 315.037C365.506 313.869 367.763 312.32 369.145 309.887C369.196 309.793 369.242 309.707 369.294 309.599C369.292 309.606 369.325 309.584 369.193 309.799C369.168 309.834 369.091 309.961 368.906 310.137C368.859 310.181 368.803 310.23 368.735 310.282C368.653 310.34 368.635 310.364 368.421 310.48C368.075 310.674 367.367 310.834 366.734 310.611C365.604 310.173 365.48 309.484 365.408 309.398C365.338 309.232 365.314 309.13 365.296 309.057C365.252 308.854 365.261 308.871 365.254 308.872C365.251 308.88 365.247 308.919 365.243 308.955C365.226 309.121 365.2 309.36 365.173 309.596C365.117 310.075 365.056 310.583 365.007 311.105C364.947 312.219 364.716 313.028 365.139 314.909C365.301 315.354 365.521 316.306 366.886 316.968C367.664 317.308 368.426 317.203 368.853 317.052C369.301 316.895 369.559 316.699 369.768 316.525C370.065 316.263 370.284 316.003 370.512 315.793C372.173 314.111 372.827 312.591 373.507 310.915C373.596 310.638 373.693 310.273 373.66 309.74C373.637 309.212 373.361 308.469 372.892 307.998C371.898 307.055 371.177 307.092 370.698 307.01C370.203 306.968 369.826 306.997 369.468 307.055C369.158 307.104 368.878 307.178 368.616 307.286C367.583 307.722 366.66 308.376 365.898 309.397C365.735 309.619 365.589 309.848 365.46 310.078C364.041 312.84 364.401 315.105 364.423 316.936C364.44 317.208 364.441 317.5 364.611 318.064C364.732 318.432 365.035 319.146 365.866 319.672C366.709 320.179 367.375 320.098 367.621 320.07C368.247 320.005 368.564 319.833 368.844 319.73C371.155 318.571 371.784 317.502 372.992 316.428C373.095 316.329 373.196 316.23 373.295 316.13C374.717 314.713 375.843 313.001 376.652 311.369C376.756 311.151 376.857 310.895 376.925 310.574C377.041 310.057 377.087 309.254 376.757 308.498C376.437 307.743 375.88 307.233 375.422 306.952C375.193 306.807 374.963 306.703 374.753 306.638C372.633 306.137 371.726 306.548 370.617 306.734C369.569 306.975 368.619 307.275 367.688 307.591C367.569 307.633 367.452 307.678 367.336 307.727C364.744 308.879 363.703 311.064 363.13 312.739C363.111 312.798 363.092 312.858 363.074 312.917C362.418 315.219 362.77 317.168 363.055 319.061C363.071 319.16 363.087 319.26 363.104 319.357C363.107 319.377 363.11 319.397 363.113 319.417C363.283 320.398 364.626 321.365 364.82 322.359C364.821 322.365 364.822 322.371 364.823 322.376C364.896 322.789 365.096 323.257 365.296 323.581C365.365 323.701 365.478 323.789 365.612 323.825C365.745 323.861 365.887 323.843 366.007 323.774C366.127 323.705 366.215 323.592 366.251 323.458C366.287 323.325 366.269 323.183 366.2 323.063C366.2 323.063 366.2 323.063 366.2 323.063C366.009 322.741 365.911 322.503 365.845 322.172C365.845 322.167 365.844 322.163 365.843 322.158C365.71 321.307 367.136 320.39 367.326 319.505C367.33 319.486 367.335 319.468 367.339 319.449C367.359 319.358 367.38 319.267 367.401 319.176C367.799 317.476 368.346 315.79 368.697 314.624C368.706 314.595 368.715 314.567 368.723 314.54C369.021 313.524 369.461 312.903 369.57 312.874C369.577 312.869 369.584 312.865 369.591 312.861C370.382 312.557 371.174 312.288 371.904 312.099C372.267 312.006 372.617 311.933 372.895 311.898C373.158 311.852 373.412 311.898 373.191 311.841C373.147 311.826 373.084 311.786 373.008 311.719C372.831 311.579 372.532 311.28 372.358 310.807C372.178 310.332 372.246 309.864 372.299 309.655C372.33 309.52 372.367 309.444 372.391 309.399C371.808 310.836 371.151 312.058 370.179 313.035C370.111 313.103 370.042 313.169 369.971 313.235C369.462 313.705 368.93 314.141 368.406 314.516C368.145 314.703 367.884 314.875 367.649 315.01C367.426 315.142 367.168 315.249 367.193 315.213C367.218 315.203 367.263 315.106 367.617 315.042C367.665 315.014 368.121 314.913 368.797 315.306C369.46 315.721 369.665 316.246 369.726 316.426C369.81 316.717 369.784 316.721 369.788 316.707C369.671 314.887 369.734 313.247 370.097 312.69C370.123 312.644 370.149 312.606 370.174 312.575C370.226 312.505 370.45 312.343 370.668 312.258C370.719 312.237 370.76 312.202 370.778 312.167C370.757 312.139 370.728 312.114 370.581 312.078C370.444 312.007 370.096 312.108 369.353 311.417C369.005 311.069 368.797 310.494 368.787 310.139C368.768 309.776 368.833 309.585 368.871 309.473C368.611 310.683 368.052 312.089 367.522 312.571C367.467 312.623 367.383 312.604 367.351 312.542C367.357 312.49 367.4 312.4 367.617 312.304C367.816 312.214 368.327 312.117 368.886 312.36C369.355 312.562 369.644 312.901 369.767 313.096C369.896 313.3 369.924 313.408 369.942 313.467C369.953 313.526 369.914 313.377 369.896 313.223C369.874 313.063 369.857 312.865 369.843 312.656C369.817 312.239 369.804 311.775 369.795 311.3C369.786 310.822 369.783 310.335 369.775 309.811C369.77 309.546 369.766 309.285 369.75 308.951C369.746 308.875 369.74 308.769 369.731 308.663C369.718 308.532 369.718 308.422 369.65 308.105C369.624 307.996 369.591 307.864 369.51 307.673C369.429 307.563 369.282 306.835 368.127 306.391C367.48 306.164 366.756 306.326 366.395 306.528C366.17 306.65 366.149 306.675 366.062 306.738C365.988 306.794 365.928 306.847 365.875 306.896C365.67 307.09 365.564 307.256 365.528 307.308C365.326 307.628 365.313 307.707 365.253 307.845C365.24 307.887 365.223 307.938 365.202 307.994C364.577 309.622 363.612 311.586 361.885 312.52C361.848 312.541 361.811 312.559 361.776 312.575C361.674 312.623 361.551 312.636 361.591 312.609C361.618 312.603 361.693 312.556 361.977 312.643C362.115 312.688 362.316 312.801 362.468 312.977C362.622 313.152 362.7 313.351 362.73 313.481C362.718 313.411 362.704 313.342 362.69 313.273C362.574 312.735 362.479 312.233 362.459 311.829C362.448 311.63 362.461 311.46 362.474 311.386C362.491 311.303 362.464 311.373 362.381 311.414C362.403 311.395 362.429 311.375 362.459 311.355C362.835 311.099 363.524 310.924 364.203 311.108C364.263 311.125 364.322 311.143 364.38 311.161C365.434 311.49 366.382 311.977 366.794 312.834C366.814 312.877 366.834 312.921 366.852 312.964C367.091 313.501 367.22 314.083 367.063 314.43C367.047 314.468 367.03 314.504 367.012 314.541C366.547 315.525 365.618 316.281 364.715 316.437C364.693 316.441 364.673 316.445 364.655 316.447C364.552 316.468 364.5 316.389 364.653 316.354C364.813 316.324 364.975 316.391 365.018 316.349C365.07 316.317 365.08 316.236 365.057 316.146C365.055 316.136 365.051 316.125 365.047 316.113C364.743 315.198 364.55 313.863 364.345 312.646Z" fill="#2C2F44"/>
<path d="M366.829 324.973C367.536 324.722 368.115 324.201 368.438 323.524C368.761 322.847 368.801 322.069 368.551 321.362C368.301 320.655 367.779 320.077 367.102 319.754C366.425 319.431 365.648 319.39 364.941 319.641C364.941 319.641 364.941 319.641 364.941 319.641C362.464 320.563 360.174 321.275 357.395 323.021C357.12 323.212 356.832 323.419 356.471 323.769C356.289 323.951 356.09 324.157 355.854 324.516C355.635 324.875 355.288 325.429 355.288 326.437C355.289 326.501 355.292 326.566 355.298 326.63C355.279 327.366 356.009 328.691 356.715 329.073C357.387 329.503 357.744 329.538 357.977 329.596C357.993 329.599 358.007 329.602 358.022 329.605C359.755 329.913 361.035 329.498 362.121 329.031C362.145 329.019 362.17 329.008 362.195 328.996C363.678 328.363 364.137 327.069 364.716 326.125C364.74 326.087 364.762 326.047 364.784 326.008C365.397 324.813 365.544 323.781 365.41 322.499C365.402 322.436 365.392 322.372 365.38 322.307C365.314 321.936 365.201 321.484 364.886 321.032C364.577 320.577 364.065 320.239 363.66 320.086C363.579 320.053 363.5 320.025 363.426 320.001C362.831 319.806 362.185 319.75 361.526 319.852C361.433 319.866 361.338 319.883 361.243 319.903C360.668 320.017 359.904 320.329 359.383 321.014C359.292 321.132 359.209 321.256 359.136 321.384C358.453 322.526 358.465 323.791 358.543 324.643C358.549 324.724 358.555 324.801 358.56 324.868C358.683 325.715 359.46 326.52 359.929 326.736C360.168 326.866 360.362 326.932 360.504 326.973C361.537 327.243 361.925 327.013 362.271 326.909C362.599 326.777 362.819 326.628 363.016 326.482C363.402 326.188 363.676 325.897 363.972 325.661C364.04 325.606 364.106 325.551 364.171 325.495C364.947 324.915 365.34 323.92 365.386 323.216C365.449 322.487 365.337 321.912 365.19 321.355C365.164 321.258 365.136 321.162 365.106 321.064C364.861 320.235 364.078 319.693 363.636 319.521C363.162 319.319 362.816 319.254 362.501 319.192C361.88 319.081 361.386 319.046 360.934 319.05C360.874 319.051 360.815 319.052 360.757 319.053C358.42 319.185 356.784 320.392 355.479 321.73C355.411 321.802 355.343 321.874 355.276 321.947C354.642 322.585 354.233 323.93 354.388 324.817C354.408 324.997 354.433 325.162 354.454 325.298C354.543 325.816 354.822 326.492 355.298 326.959C355.481 327.144 355.678 327.297 355.865 327.418C357.243 328.267 358.433 327.964 359.121 327.835C359.25 327.808 359.371 327.778 359.487 327.747C363.183 326.421 363.788 323.732 364.388 321.163C364.405 321.039 364.422 320.909 364.434 320.763C364.468 320.402 364.36 319.727 363.94 319.239C363.529 318.755 363.104 318.602 362.84 318.517C362.307 318.37 362.072 318.4 361.85 318.396C361.431 318.408 361.169 318.446 360.904 318.483C360.39 318.56 359.955 318.654 359.527 318.799C359.471 318.819 359.415 318.839 359.359 318.859C358.058 319.434 357.487 320.223 356.992 321.071C356.945 321.158 356.899 321.246 356.856 321.336C355.481 323.787 356.792 327.196 358.336 328.507C358.349 328.519 358.359 328.528 358.36 328.528C359.095 329.303 360.293 329.472 360.887 329.366C360.962 329.358 361.032 329.346 361.099 329.333C361.563 329.258 362.122 329.01 362.493 328.699C362.872 328.39 363.092 328.076 363.254 327.825C363.29 327.768 363.322 327.714 363.352 327.661C364.341 325.743 364.019 324.138 363.702 322.833C363.318 321.501 362.844 320.394 361.894 319.153C361.87 319.122 361.845 319.092 361.82 319.062C361.04 318.063 359.654 317.708 358.817 317.767C357.932 317.802 357.273 318.022 356.669 318.257C355.47 318.756 354.538 319.329 353.53 320.149C353.509 320.167 353.487 320.186 353.466 320.204C351.922 321.508 351.563 323.622 351.739 324.986C351.759 325.179 351.806 325.391 351.893 325.608C352.276 326.563 353.158 326.918 353.552 326.986C353.997 327.072 354.276 327.031 354.521 326.988C354.997 326.89 355.317 326.723 355.635 326.542C355.661 326.526 355.687 326.51 355.714 326.494C358.12 324.962 359.174 322.676 359.055 319.725C359.026 319.533 358.967 319.332 358.88 319.146C358.583 318.522 358.107 318.223 357.799 318.068C357.474 317.91 357.224 317.848 356.996 317.801C356.546 317.714 356.181 317.707 355.807 317.755C355.744 317.764 355.683 317.775 355.623 317.787C354.557 318.029 353.806 318.506 353.093 319.261C353.066 319.291 353.039 319.321 353.013 319.351C350.464 322.736 351.927 326.068 353.105 328.328C353.325 328.718 353.757 329.16 354.244 329.396C355.788 330.022 356.36 329.543 356.81 329.412C357.023 329.318 357.223 329.199 357.391 329.076C358.424 328.248 358.564 327.565 358.755 327.04C358.913 326.505 358.97 326.064 359.006 325.638C359.071 324.794 359.028 324.044 358.952 323.302C358.776 321.814 358.54 320.468 357.952 318.865C357.792 318.375 357.233 317.786 356.737 317.602C355.764 317.251 355.396 317.439 355.058 317.472C354.734 317.536 354.495 317.61 354.263 317.696C354.096 317.762 353.945 317.835 353.804 317.916C353.023 318.365 352.437 318.981 352.05 319.742C351.996 319.848 351.946 319.956 351.9 320.065C350.44 324.855 353.195 327.708 354.417 330.077C354.65 330.452 355.066 330.893 355.578 331.169C356.387 331.609 357.083 331.666 357.37 331.734C357.73 331.767 358.075 331.741 358.369 331.657C359.971 331.117 360.46 330.391 360.99 329.81C361.48 329.209 361.823 328.636 362.13 328.068C362.735 326.932 363.17 325.827 363.598 324.684C363.642 324.57 363.686 324.455 363.74 324.258C363.767 324.154 363.797 324.035 363.822 323.847C363.829 323.621 363.932 323.444 363.712 322.657C363.651 322.474 363.56 322.265 363.417 322.05C363.258 321.808 363.02 321.549 362.725 321.35C362.096 320.92 361.404 320.884 361.035 320.928C360.269 321.041 360.107 321.219 359.904 321.326C359.567 321.548 359.456 321.678 359.336 321.799C359.123 322.029 359.007 322.2 358.901 322.365C358.694 322.692 358.559 322.988 358.445 323.295C358.382 323.468 358.332 323.631 358.288 323.79C358.145 324.324 358.002 324.805 357.903 325.376C357.841 325.97 357.647 326.533 358.181 327.791C358.356 328.153 358.639 328.559 359.034 328.892C360.283 329.904 361.494 329.75 362.08 329.664C362.724 329.549 363.136 329.376 363.516 329.215C363.633 329.164 363.751 329.111 363.864 329.058C366.543 327.726 368.171 325.954 369.801 324.281C369.874 324.204 369.946 324.124 370.018 324.041C370.698 323.318 371.325 321.977 371.466 321.129C371.489 321.021 371.512 320.901 371.531 320.762C371.565 320.458 371.639 320.065 371.511 319.389C371.415 318.723 370.797 317.733 370.151 317.332C369.883 317.146 369.632 317.026 369.421 316.946C368.044 316.509 367.609 316.685 367.054 316.691C366.54 316.735 366.11 316.804 365.696 316.876C364.874 317.024 364.131 317.195 363.397 317.363C363.336 317.377 363.275 317.392 363.214 317.407C360.734 318.021 358.856 319.536 357.63 320.487L361.35 324.468C361.367 324.444 361.383 324.421 361.399 324.398C361.407 324.386 361.415 324.375 361.423 324.363C362.623 322.634 363.61 320.071 364.22 318.785L363.99 318.9C363.989 318.9 363.989 318.899 363.988 318.899C363.95 318.878 363.866 318.709 363.928 318.502C363.982 318.296 364.158 318.079 364.34 317.94C364.382 317.907 364.429 317.842 364.466 317.782C364.502 317.721 364.526 317.67 364.536 317.618C364.545 317.566 364.541 317.511 364.528 317.441C364.515 317.372 364.495 317.295 364.467 317.248C364.467 317.248 364.467 317.248 364.467 317.248C364.348 317.054 364.221 316.781 363.969 316.569C363.724 316.355 363.331 316.233 363.007 316.323C363.001 316.324 362.995 316.326 362.988 316.328L362.758 316.443C360.112 318.134 358.614 319.278 357.067 320.993C357.058 321.004 357.049 321.014 357.04 321.025C357.022 321.046 357.004 321.067 356.986 321.088L360.706 325.069C362.408 323.961 363.501 323.26 364.561 323.036C364.586 323.03 364.611 323.025 364.635 323.02C365.345 322.874 366.044 322.733 366.677 322.631C366.99 322.58 367.292 322.541 367.513 322.525C367.622 322.517 367.712 322.517 367.73 322.518C367.74 322.511 367.713 322.549 367.34 322.421C367.23 322.378 367.079 322.308 366.9 322.182C366.47 321.92 366.004 321.156 365.965 320.741C365.897 320.314 365.962 320.182 365.968 320.13C365.974 320.108 365.978 320.104 365.98 320.112C365.953 320.343 365.971 320.306 365.973 320.344C365.976 320.37 365.961 320.418 365.898 320.491C365.885 320.506 365.871 320.522 365.854 320.54C364.442 322.031 362.862 323.428 361.541 324.012C361.488 324.036 361.435 324.057 361.385 324.076C361.251 324.127 361.135 324.137 361.229 324.108C361.28 324.097 361.394 324.07 361.648 324.102C361.892 324.129 362.333 324.266 362.69 324.575C362.938 324.783 363.104 325.033 363.191 325.222C363.331 325.551 363.287 325.637 363.262 325.665C363.231 325.69 363.187 325.646 363.153 325.583C363.083 325.455 363.049 325.24 363.089 325.099C363.1 325.058 363.111 325.022 363.119 325.001C363.118 325.001 363.123 325 363.093 325.052C363.073 325.081 363.056 325.118 362.953 325.23C362.89 325.292 362.84 325.366 362.571 325.544C362.404 325.629 362.277 325.788 361.553 325.895C361.204 325.937 360.533 325.904 359.921 325.486C359.634 325.293 359.403 325.041 359.25 324.808C359.113 324.6 359.026 324.402 358.968 324.228C358.763 323.49 358.862 323.36 358.863 323.185C358.882 323.045 358.901 322.974 358.915 322.919C358.942 322.817 358.953 322.791 358.958 322.772C358.56 323.618 358.028 324.452 357.487 325.145C357.219 325.488 356.94 325.801 356.714 326.008C356.603 326.11 356.504 326.184 356.47 326.199C356.44 326.218 356.463 326.154 356.765 326.059C356.873 326.028 357.028 326.034 357.198 326.074C357.185 326.151 357.566 326.191 358.106 326.485C358.446 326.669 358.721 326.969 358.848 327.181C357.093 324.971 355.784 322.573 356.098 321.659C356.103 321.635 356.108 321.611 356.113 321.586C356.088 321.552 356.083 321.468 356.041 321.446C356.031 321.443 356.015 321.442 355.989 321.443C356.018 321.409 356.049 321.38 356.004 321.376C355.979 321.373 355.936 321.379 355.825 321.38C355.715 321.375 355.524 321.388 355.171 321.244C354.811 321.116 354.361 320.641 354.251 320.289C354.55 321.113 354.64 322.362 354.568 323.447C354.533 323.996 354.457 324.538 354.343 324.973C354.287 325.187 354.216 325.376 354.164 325.455C354.141 325.536 353.996 325.467 354.503 325.027C354.588 324.963 354.696 324.897 354.817 324.843C354.9 324.806 355.008 324.759 355.241 324.723C355.464 324.697 355.89 324.649 356.486 324.937C356.879 325.126 357.234 325.492 357.401 325.791C356.439 324.256 355.796 322.405 356.184 321.918C356.188 321.91 356.193 321.903 356.197 321.895C356.232 321.783 356.49 321.607 356.537 321.567C356.538 321.565 356.538 321.562 356.537 321.559C356.55 321.534 356.585 321.501 356.527 321.463C356.495 321.441 356.439 321.423 356.295 321.348C356.165 321.274 355.857 321.102 355.645 320.659C355.583 320.528 355.542 320.386 355.522 320.255C355.515 320.17 355.522 320.379 355.501 320.514C355.481 320.666 355.449 320.829 355.405 320.99C355.318 321.314 355.188 321.627 355.029 321.902C354.708 322.456 354.288 322.834 353.799 323.07C353.788 323.075 353.776 323.08 353.764 323.085C353.807 323.052 353.828 322.994 353.994 322.938C354.083 322.914 354.204 322.876 354.495 322.927C354.642 322.957 354.842 323.012 355.099 323.181C355.351 323.342 355.65 323.669 355.792 324.037C355.865 324.218 355.903 324.392 355.919 324.547C355.825 323.73 355.863 323.355 356.066 323.174C356.07 323.171 356.073 323.168 356.077 323.165C356.611 322.72 357.428 322.258 358.094 322.037C358.425 321.923 358.746 321.875 358.865 321.893C358.923 321.9 358.912 321.92 358.826 321.897C358.741 321.877 358.599 321.786 358.533 321.71C358.539 321.718 358.545 321.727 358.551 321.737C359.31 322.713 359.566 325.252 359.209 325.227C359.216 325.213 359.225 325.196 359.236 325.177C359.287 325.094 359.374 324.936 359.591 324.747C359.8 324.556 360.165 324.384 360.429 324.335C360.457 324.327 360.489 324.32 360.524 324.314C360.782 324.237 361.617 324.315 362.114 324.839C362.094 324.818 362.078 324.801 362.064 324.787C361.668 324.4 361.467 324.113 361.356 323.903C361.259 323.698 361.196 323.613 361.276 323.305C361.278 323.294 361.281 323.281 361.285 323.267C361.307 323.123 361.492 322.988 361.223 323.09C361.256 323.072 361.29 323.053 361.324 323.034C361.576 322.892 361.833 322.728 362.031 322.608C362.123 322.549 362.221 322.504 362.17 322.485C362.131 322.467 362.086 322.494 361.73 322.396C361.555 322.337 361.216 322.226 360.865 321.813C360.506 321.395 360.419 320.816 360.447 320.548C360.451 320.553 360.451 320.58 360.446 320.616C360.305 321.887 358.848 323.518 358.488 323.271C358.431 323.278 358.378 323.283 358.331 323.287C358.197 323.297 358.107 323.262 358.149 323.232C358.181 323.2 358.399 323.203 358.613 323.333C358.664 323.362 358.731 323.411 358.798 323.478C358.979 323.653 359.058 323.948 359.041 324.065C359.021 324.05 359.01 324.061 359.006 324.085C358.997 324.145 358.983 324.314 358.918 324.472C358.856 324.633 358.757 324.752 358.705 324.793C358.735 324.749 358.767 324.706 358.8 324.664C359.431 323.838 360.396 323.241 361.019 323.151C361.078 323.145 361.137 323.138 361.194 323.131C361.616 323.082 361.997 322.989 362.251 322.933C362.372 322.901 362.464 322.893 362.403 322.842C362.372 322.814 362.29 322.769 362.17 322.653C362.05 322.542 361.916 322.335 361.865 322.158C361.878 322.189 361.89 322.223 361.9 322.258C361.959 322.462 361.95 322.686 361.909 322.741C361.857 322.817 361.877 322.592 361.998 322.468C361.948 322.495 361.9 322.52 361.851 322.544C361.644 322.649 361.396 322.675 361.231 322.639C361.152 322.621 361.089 322.585 361.123 322.531C361.176 322.5 361.25 322.324 361.989 322.503C362.01 322.503 362.085 322.522 362.211 322.591C362.452 322.685 363.035 323.281 363.106 323.869C363.084 323.813 363.063 323.767 363.045 323.724C362.852 323.292 362.795 323.156 362.696 323.091C362.673 323.114 362.648 323.137 362.622 323.158C362.461 323.291 362.279 323.23 362.323 323.14C362.329 323.126 362.337 323.113 362.346 323.102C362.416 323.019 362.544 322.968 362.678 322.958C362.696 322.957 362.71 322.956 362.719 322.953C362.769 322.945 362.684 322.865 362.671 322.788C362.654 322.713 362.708 322.723 362.733 322.821C362.737 322.838 362.742 322.858 362.745 322.88C362.821 323.388 362.654 324.228 362.389 324.615C362.379 324.63 362.369 324.646 362.358 324.661C362.087 325.08 361.199 324.869 361.117 324.643C361.098 324.642 361.08 324.64 361.062 324.64C360.29 324.612 359.6 324.439 359.463 324.258C359.459 324.256 359.455 324.254 359.453 324.252C359.412 324.233 359.491 324.183 359.926 324.452C360.392 324.676 360.971 325.726 360.936 326.176C360.94 326.226 360.943 326.275 360.944 326.324C360.94 327.098 360.692 327.43 360.6 327.593C360.492 327.756 360.447 327.79 360.433 327.807C360.407 327.829 360.492 327.755 360.599 327.683C362.074 326.729 364.59 325.774 366.829 324.973Z" fill="#2C2F44"/>
<path d="M391.909 299.016C391.909 298.545 391.722 298.093 391.389 297.76C391.056 297.427 390.604 297.24 390.133 297.24C389.663 297.24 389.211 297.427 388.878 297.76C388.545 298.093 388.358 298.545 388.358 299.016C388.349 300.583 388.663 302.203 389.208 303.641C389.229 303.698 389.25 303.755 389.271 303.812C389.508 304.464 389.579 305.135 389.512 305.694C389.448 306.267 389.258 306.667 389.071 307.527C388.997 307.878 388.935 308.301 388.927 308.747C388.925 308.859 388.925 308.967 388.928 309.081C388.922 309.143 388.953 309.074 388.911 309.175C388.868 309.269 388.697 309.49 388.419 309.758C388.353 309.823 388.28 309.891 388.203 309.963C387.948 310.216 387.799 310.216 388.007 310.212C388.018 310.214 388.029 310.22 388.005 310.228C387.992 310.232 387.971 310.236 387.908 310.24C387.818 310.255 387.812 310.211 387.255 310.32C387.188 310.336 387.11 310.358 387.009 310.393C386.959 310.411 386.905 310.432 386.838 310.461C386.738 310.505 386.617 310.564 386.469 310.664C386.394 310.714 386.314 310.774 386.227 310.85C386.184 310.889 386.139 310.931 386.093 310.978C386.052 311.021 385.993 311.084 385.917 311.184C385.622 311.545 385.378 312.239 385.464 312.835C385.617 313.854 386.14 314.19 386.233 314.298C386.386 314.43 386.501 314.5 386.59 314.552C386.655 314.59 386.71 314.617 386.758 314.639C386.861 314.687 386.904 314.7 386.957 314.719C387.142 314.78 387.219 314.787 387.299 314.799C387.451 314.818 387.557 314.816 387.663 314.812C387.871 314.804 388.052 314.78 388.233 314.758C388.592 314.713 388.931 314.673 389.274 314.712C389.377 314.723 389.48 314.734 389.587 314.744C389.6 314.744 389.63 314.753 389.519 314.732C389.481 314.723 389.484 314.727 389.363 314.689C389.309 314.67 389.241 314.645 389.148 314.599C389.101 314.576 389.048 314.546 388.987 314.507C388.95 314.483 388.945 314.481 388.871 314.425C388.797 314.369 388.714 314.297 388.626 314.198C388.452 314.007 388.245 313.673 388.188 313.251C388.158 313.044 388.168 312.828 388.208 312.64C388.251 312.444 388.288 312.358 388.34 312.243C388.55 311.817 388.765 311.669 388.894 311.566C389.123 311.408 389.137 311.42 389.208 311.384C389.388 311.311 389.349 311.334 389.349 311.33C389.335 311.333 389.311 311.337 389.274 311.344C389.139 311.367 388.949 311.391 388.766 311.411C388.394 311.45 387.999 311.478 387.61 311.497C387.221 311.516 386.83 311.527 386.463 311.526C386.281 311.525 386.101 311.521 385.95 311.513C385.875 311.508 385.806 311.502 385.763 311.496C385.729 311.495 385.678 311.472 385.849 311.519C385.838 311.515 385.823 311.509 385.8 311.497C385.677 311.446 385.307 311.19 384.951 310.758C385.027 310.876 385.057 310.973 385.068 311.026C385.085 311.206 385.011 310.989 385.038 310.74C385.026 310.815 385.001 310.901 384.97 310.973C384.83 311.258 384.774 311.223 384.952 311.151C385.036 311.112 385.155 311.061 385.335 310.969C385.427 310.922 385.535 310.866 385.684 310.766C385.832 310.658 386.039 310.541 386.325 310.134C386.594 309.745 386.712 309.25 386.716 308.897C386.709 308.089 386.504 307.76 386.38 307.447C386.242 307.148 386.114 306.923 385.992 306.712C385.749 306.295 385.532 305.948 385.349 305.614C385.365 305.638 385.385 305.669 385.414 305.741C385.434 305.801 385.507 305.856 385.586 306.054C385.622 306.157 385.666 306.297 385.648 306.557C385.626 306.802 385.537 307.266 385.048 307.731C384.49 308.313 383.752 308.371 383.519 308.33C383.052 308.247 383.085 308.197 383.076 308.202C383.086 308.204 383.15 308.237 383.225 308.282C383.38 308.373 383.585 308.509 383.815 308.662C383.822 308.665 383.831 308.669 383.841 308.674C383.969 308.726 384.292 309.154 384.596 309.806C384.98 310.472 385.031 311.257 386.333 312.603C386.455 312.704 386.531 312.802 386.923 313.017C387.136 313.104 387.319 313.265 388.049 313.27C388.351 313.269 388.888 313.135 389.256 312.855C389.654 312.556 389.801 312.307 389.931 312.066C390.285 311.232 390.153 311.117 390.178 310.921C390.163 310.602 390.131 310.491 390.106 310.353C390.053 310.108 390.002 309.937 389.953 309.767C389.855 309.435 389.761 309.146 389.676 308.862C389.507 308.302 389.369 307.762 389.333 307.344C389.308 306.938 389.188 306.527 389.067 306.245C388.948 305.965 388.879 305.768 388.944 305.788C389.005 305.781 389.197 306.209 389.153 306.587C389.226 306.501 389.292 306.421 389.328 306.333C389.401 306.155 389.48 305.995 389.596 305.787C389.656 305.678 389.723 305.567 389.832 305.362C389.888 305.255 389.957 305.13 390.051 304.883C390.119 304.637 390.351 304.231 390.172 303.285C389.91 302.266 389.4 301.855 389.051 301.556C388.886 301.426 388.731 301.323 388.554 301.225C388.464 301.176 388.373 301.129 388.246 301.075C388.182 301.048 388.11 301.018 387.988 300.979C387.923 300.959 387.848 300.935 387.699 300.905C387.595 300.888 387.553 300.871 387.278 300.859C387.129 300.865 387.062 300.834 386.604 300.938C386.381 301.005 386.166 301.055 385.759 301.347C385.291 301.665 384.828 302.434 384.8 303.08C384.755 303.544 384.813 304.08 384.972 304.545C385.442 305.835 386.2 306.331 386.617 306.692C386.837 306.866 387.024 307.004 387.096 307.074C387.13 307.106 387.135 307.126 387.052 307.056C386.986 306.974 386.724 306.836 386.507 306.091C386.458 305.909 386.473 306.037 386.469 306.241C386.478 306.449 386.434 306.711 386.572 307.339C386.711 307.874 386.977 308.705 388.017 309.38C388.315 309.564 388.674 309.706 389.056 309.772C389.368 309.827 389.863 309.861 390.411 309.701C390.961 309.547 391.435 309.201 391.7 308.908C392.23 308.305 392.294 307.946 392.402 307.68C392.523 307.32 392.574 307.092 392.625 306.88C392.68 306.674 392.736 306.469 392.768 306.263C393.048 304.341 393.085 302.53 392.523 300.548C392.472 300.379 392.415 300.214 392.35 300.05C391.847 298.466 389.891 296.716 388.118 296.477C386.381 296.152 384.994 296.477 383.832 296.85C383.069 297.085 382.357 297.669 381.994 298.18C381.039 299.641 381.181 300.277 381.054 300.794C381.02 301.04 380.994 301.235 380.977 301.322C380.969 301.363 380.963 301.377 380.978 301.317C381 301.254 381.017 301.119 381.231 300.777C380.914 301.273 380.675 301.853 380.659 302.65C380.625 303.433 381.018 304.461 381.614 305.035C381.693 305.116 381.774 305.19 381.857 305.257C382.444 305.712 382.734 305.733 382.99 305.782C383.237 305.814 383.421 305.795 383.568 305.784C383.617 305.779 383.662 305.771 383.694 305.758C383.708 305.739 383.806 305.747 383.618 305.665C383.603 305.624 383.568 305.576 383.499 305.507C383.478 305.48 383.386 305.418 383.288 305.336C383.237 305.294 383.178 305.244 383.11 305.181C383.076 305.149 383.04 305.114 383.002 305.074C382.952 305.024 382.874 304.942 382.804 304.853C382.524 304.511 382.134 303.76 382.345 302.843C382.441 302.428 382.63 302.121 382.793 301.92C382.92 301.768 383.013 301.688 383.104 301.614C383.482 301.333 383.534 301.365 383.616 301.319C383.815 301.243 383.672 301.298 383.596 301.309C383.497 301.329 383.372 301.351 383.245 301.37C382.985 301.41 382.69 301.446 382.402 301.477C381.812 301.54 381.201 301.59 380.579 301.64C379.956 301.69 379.329 301.736 378.668 301.8C378.34 301.832 378.002 301.868 377.638 301.92C377.249 301.987 376.959 301.989 376.209 302.26C375.706 302.448 375.244 302.654 374.802 302.868C374.323 303.1 373.849 303.31 373.388 303.512C373.157 303.613 372.931 303.712 372.716 303.807C372.516 303.892 372.253 304.014 372.231 303.993C372.211 304 372.198 304.004 372.201 303.999C372.209 303.994 372.179 304.004 372.333 303.931C372.382 303.91 372.43 303.884 372.618 303.82C372.683 303.8 372.676 303.798 372.864 303.751C372.985 303.724 373.136 303.685 373.46 303.672C373.775 303.697 374.364 303.557 375.433 304.33C375.945 304.717 376.403 305.464 376.509 306.12C376.629 306.78 376.518 307.266 376.42 307.584C376.203 308.216 376.013 308.4 375.895 308.563C375.656 308.851 375.568 308.907 375.493 308.975C375.248 309.174 375.241 309.163 375.226 309.176C375.218 309.182 375.212 309.186 375.207 309.19C375.156 309.229 375.218 309.195 375.251 309.181C375.318 309.152 375.404 309.11 375.486 309.07C375.647 308.991 375.816 308.902 375.977 308.808C378.163 307.543 380.322 306.31 382.572 304.981C382.878 304.794 383.357 304.569 384.004 304.207C384.334 304.019 384.711 303.79 385.111 303.481C385.677 303.005 385.963 302.783 386.512 301.888C386.639 301.652 386.822 301.317 386.929 300.718C387.047 300.134 386.938 299.223 386.611 298.624C385.926 297.421 385.379 297.278 385.061 297.059C384.975 297.012 384.897 296.974 384.822 296.941C384.455 296.785 384.059 296.718 383.672 296.642C383.287 296.566 382.893 296.567 382.522 296.5C379.952 295.986 377.204 296.831 375.863 297.271C375.454 297.38 375.034 297.484 374.605 297.591C372.734 298.071 370.749 298.426 368.443 299.234C367.792 299.471 367.167 299.822 366.643 300.221C365.717 300.923 365.043 301.655 364.548 302.191C363.682 303.295 363.555 304.534 363.564 305.229C363.648 306.911 363.908 307.613 363.857 307.733C363.845 307.211 363.897 307.203 363.863 307.307C363.849 307.369 363.823 307.475 363.786 307.677C363.76 307.896 363.672 308.141 363.738 308.914C363.79 309.33 363.92 310.083 364.591 310.886C365.342 311.752 367.114 312.217 368.231 312.094C370.575 311.835 371.171 310.944 371.963 310.325C372.326 309.987 372.643 309.647 372.954 309.267C373.111 309.072 373.259 308.88 373.432 308.621C373.52 308.486 373.611 308.344 373.73 308.115C373.801 307.969 373.862 307.869 373.98 307.505C374.014 307.363 374.151 307.048 374.12 306.346C374.113 305.992 373.91 304.83 372.921 304.08C371.995 303.369 371.022 303.387 370.543 303.462C369.914 303.55 369.297 303.676 368.697 303.834C366.353 304.422 363.907 305.591 362.302 306.515C361.723 306.851 360.788 307.687 360.489 308.988C360.194 310.278 360.57 311.324 360.967 311.994C361.111 312.252 361.253 312.479 361.392 312.688C361.585 312.978 361.778 313.228 361.965 313.457C362.363 313.945 362.728 314.354 363.024 314.706C363.312 315.038 363.568 315.4 363.514 315.339C364.051 316.266 364.657 316.805 365.178 317.218C366.148 317.956 366.979 318.288 367.732 318.565C368.107 318.699 368.462 318.808 368.77 318.898C368.923 318.943 369.066 318.983 369.174 319.012C369.276 319.035 369.374 319.071 369.272 318.991C369.772 319.276 370.095 319.352 370.2 319.383C370.305 319.397 370.197 319.404 369.726 319.086C369.401 318.858 368.985 318.387 368.795 317.877C368.668 317.554 368.708 317.233 368.811 317.02C369.009 316.599 369.362 316.437 369.475 316.176C369.558 315.993 369.616 315.756 369.751 315.515C369.75 315.417 369.745 315.331 369.76 315.305C369.798 315.239 369.732 315.264 369.616 315.307C368.81 315.607 367.007 316.201 365.579 317.193C365.28 317.396 365.232 317.415 365.089 317.487C364.653 317.702 363.843 317.879 363.096 318.113C362.896 318.177 362.693 318.248 362.492 318.329C360.179 319.261 357.785 320.174 355.36 321.131C355.244 321.177 355.131 321.222 355.017 321.268C354.663 321.41 354.315 321.558 353.937 321.729C353.746 321.816 353.555 321.905 353.31 322.028C353.185 322.091 353.049 322.159 352.838 322.283C352.731 322.346 352.599 322.426 352.414 322.562C352.239 322.686 351.962 322.939 351.856 323.06C351.654 323.282 351.425 323.55 351.183 324.005C350.964 324.427 350.754 325.124 350.879 326.019C351.11 327.57 351.946 328.067 352.234 328.322C352.84 328.756 353.088 328.777 353.333 328.854C353.567 328.912 353.747 328.935 353.912 328.956C354.238 328.994 354.5 329.019 354.729 329.09C354.601 329.029 354.458 328.944 354.321 328.834C354.028 328.605 353.84 328.287 353.77 328.104C353.696 327.913 353.692 327.829 353.686 327.814C353.681 327.801 353.681 327.846 353.673 327.962C353.67 328.023 353.665 328.098 353.663 328.237C353.662 328.309 353.661 328.391 353.671 328.539C353.694 328.702 353.662 328.849 353.871 329.419C353.741 329.107 353.545 328.411 353.842 327.595C354.148 326.788 354.68 326.439 354.927 326.288C355.472 325.994 355.585 326.03 355.701 325.996C355.991 325.953 355.852 325.949 355.767 325.907C355.652 325.872 355.531 325.821 355.195 325.802C355.347 325.779 355.502 325.785 355.623 325.813C356.105 325.949 356.011 326.069 355.829 325.97C355.637 325.885 355.343 325.679 355.015 325.393C355.059 325.441 355.105 325.495 355.149 325.554C355.319 325.777 355.369 326.029 355.372 326.08C355.378 326.141 355.373 326.062 355.401 325.919C355.446 325.591 355.621 325.216 355.758 324.148C355.762 324.094 355.765 324.04 355.767 323.986C355.814 322.836 355.075 321.985 354.672 321.699C354.273 321.398 353.974 321.256 353.645 321.123C353.281 321.017 353.069 320.83 352.094 320.977C350.79 321.256 350.092 322.284 349.883 322.977C349.561 324.028 349.788 324.888 350.136 325.534C350.251 325.753 350.383 325.947 350.517 326.111C351.041 326.735 351.475 326.991 351.729 327.172C351.984 327.337 352.102 327.443 351.94 327.313C351.913 327.289 351.887 327.265 351.864 327.24C351.585 326.909 351.711 326.96 351.743 327.347C351.81 327.752 351.768 328.234 352.027 329.402C352.013 329.348 352.004 329.304 351.998 329.271C351.97 329.086 352.002 329.152 352.028 329.332C352.071 329.534 352.049 329.799 352.304 330.583C352.33 330.651 352.357 330.72 352.388 330.791C352.558 331.194 353.111 331.57 353.706 331.664C354.306 331.772 354.839 331.573 355.133 331.42C355.164 331.405 355.195 331.392 355.228 331.38C355.43 331.308 355.699 331.218 355.883 331.073C356.07 330.93 356.164 330.766 356.21 330.624C356.296 330.338 356.251 330.106 356.19 329.871C356.19 329.871 356.19 329.871 356.19 329.871C356.19 329.871 356.19 329.871 356.19 329.871C356.19 329.871 356.19 329.871 356.19 329.871C356.19 329.871 356.19 329.871 356.19 329.871C356.19 329.871 356.19 329.871 356.19 329.871C355.955 329.82 355.728 329.764 355.598 329.608C355.536 329.531 355.513 329.419 355.576 329.298C355.636 329.175 355.777 329.073 355.857 328.968C355.87 328.951 355.883 328.932 355.894 328.912C355.993 328.7 356.34 328.406 356.792 328.373C357.237 328.329 357.682 328.526 357.78 328.739C357.798 328.776 357.814 328.811 357.829 328.844C357.989 329.314 357.961 329.249 357.992 329.125C358.006 328.979 358.032 328.717 357.947 328.21C357.931 328.12 357.911 328.02 357.883 327.911C357.865 327.912 357.798 327.186 357.671 326.41C357.515 325.626 357.331 324.456 356.235 323.229C356.143 323.13 356.046 323.034 355.943 322.941C355.418 322.481 355.11 322.336 354.955 322.232C354.8 322.145 354.823 322.118 355.032 322.364C355.084 322.429 355.142 322.518 355.194 322.627C355.442 323.101 355.627 323.75 355.361 324.61C355.19 325.171 354.588 326.076 353.421 326.321C352.963 326.405 352.778 326.355 352.609 326.326C352.449 326.29 352.337 326.246 352.23 326.199C352.017 326.1 351.832 326.008 351.529 325.781C351.364 325.651 351.156 325.464 350.956 325.131C350.756 324.808 350.6 324.296 350.621 323.834C350.623 323.787 350.626 323.74 350.63 323.694C350.651 323.702 350.475 324.362 350.354 325.103C350.263 325.824 350.045 327.165 351.06 328.592C351.191 328.769 351.335 328.935 351.488 329.086C351.992 329.489 352.044 330.54 354.37 331.307C354.679 331.378 355.028 331.404 355.371 331.375C355.32 331.348 355.483 331.311 355.652 331.281C355.851 331.244 355.997 331.248 356.57 331.162C356.766 331.113 356.961 331.132 357.579 330.797C357.861 330.625 358.427 330.246 358.747 329.4C359.059 328.545 358.855 327.807 358.71 327.455C358.893 327.958 358.853 328.035 358.869 328.126C358.874 328.201 358.871 328.214 358.87 328.215C358.868 328.211 358.867 328.143 358.866 328.061C358.865 327.892 358.864 327.651 358.835 327.354C358.772 326.81 358.613 325.697 357.53 324.81C357.285 324.616 357.026 324.462 356.77 324.346C356.473 324.19 356.204 324.006 356 323.829C355.9 323.742 355.816 323.655 355.791 323.593C355.78 323.549 355.768 323.441 356.153 323.693C356.266 323.778 356.435 323.89 356.664 324.167C356.887 324.433 357.183 324.945 357.258 325.593C357.372 326.323 357.214 326.855 357.072 327.133C356.912 327.434 356.794 327.563 356.711 327.659C356.667 327.713 356.459 327.905 356.358 327.975C356.247 328.057 356.193 328.089 356.165 328.107C356.112 328.141 356.143 328.127 356.182 328.113C356.269 328.08 356.413 328.024 356.558 327.97C356.856 327.857 357.184 327.736 357.513 327.609C357.619 327.568 357.726 327.527 357.837 327.484C360.199 326.583 362.624 325.701 365.076 324.714C365.293 324.626 365.506 324.527 365.718 324.419C366.562 323.984 367.339 323.481 368.375 322.8C368.687 322.593 369.065 322.297 369.195 322.186C369.867 321.616 370.555 321.334 372.123 320.586C372.403 320.44 372.73 320.258 373.126 319.933C373.275 319.809 373.404 319.613 373.523 319.399C373.792 319.027 373.959 318.632 374.119 318.277C374.343 317.771 374.747 317.336 374.929 316.646C375.024 316.29 375.034 315.824 374.851 315.368C374.576 314.647 374.006 313.998 373.493 313.642C372.846 313.203 372.533 313.141 372.438 313.083C372.342 313.042 372.462 313.047 372.78 313.221C372.053 312.761 371.796 312.654 371.461 312.465C371.152 312.297 370.887 312.15 370.649 312.011C370.18 311.742 369.799 311.474 369.704 311.393C369.651 311.358 369.726 311.378 369.898 311.671C368.78 309.936 368.074 309.476 367.528 308.801C367.406 308.662 367.3 308.537 367.21 308.44C367.146 308.37 367.093 308.312 367.058 308.276C367.326 308.736 367.631 309.524 367.392 310.569C367.147 311.625 366.395 312.264 366.026 312.47C367.718 311.126 368.831 310.302 370.367 309.818C370.733 309.706 371.098 309.618 371.461 309.557C371.009 309.627 370.056 309.649 369.145 308.95C368.171 308.21 367.977 307.074 367.971 306.741C367.943 306.07 368.066 305.814 368.09 305.703C368.181 305.424 368.211 305.391 368.24 305.329C368.285 305.244 368.287 305.249 368.282 305.259C368.267 305.285 368.218 305.358 368.162 305.429C368.05 305.576 367.907 305.734 367.778 305.858C367.65 305.983 367.523 306.078 367.485 306.101C367.456 306.136 367.495 306.03 368.021 305.992C368.486 305.905 369.624 306.057 369.966 306.413C370.579 307.146 370.684 307.808 370.726 308.135C370.776 308.745 370.711 308.828 370.712 308.887C370.703 308.928 370.713 308.875 370.733 308.778C370.765 308.565 370.887 308.235 370.861 307.387C370.725 305.865 370.398 304.998 370.414 305.036C370.407 305.066 370.401 305.173 370.34 305.378C370.281 305.578 370.142 305.887 369.926 306.142C370.209 305.616 370.363 305.3 370.485 305.194C370.555 305.132 370.589 305.109 370.642 305.082C372.146 304.49 374.158 304.059 376.195 303.466C376.669 303.329 377.148 303.178 377.631 303.011C378.327 302.766 378.573 302.635 378.94 302.498C379.278 302.367 379.594 302.26 379.896 302.182C380.501 302.025 381.048 301.984 381.514 302.069C381.648 302.093 381.752 302.218 381.855 302.3C381.961 302.382 382.039 302.503 382.14 302.57C382.121 302.563 382.097 302.552 382.064 302.534C381.952 302.431 381.615 302.426 381.042 301.438C380.771 300.944 380.678 300.158 380.776 299.692C380.863 299.21 380.996 298.986 381.065 298.855C381.312 298.476 381.174 298.691 381.276 298.588C381.218 298.638 381.102 298.72 380.927 298.82C380.587 299.021 380.035 299.28 379.369 299.682C377.277 300.935 375.057 302.217 372.875 303.507C372.711 303.604 372.547 303.709 372.387 303.819C372.305 303.876 372.221 303.935 372.138 303.996C372.076 304.039 372.069 304.047 371.937 304.138C371.928 304.144 371.919 304.15 371.908 304.158C371.889 304.174 371.866 304.174 371.618 304.375C371.542 304.444 371.453 304.501 371.213 304.789C371.095 304.952 370.905 305.137 370.687 305.769C370.589 306.088 370.479 306.573 370.599 307.234C370.705 307.889 371.162 308.636 371.675 309.024C372.744 309.796 373.334 309.656 373.648 309.682C373.972 309.669 374.124 309.629 374.245 309.603C374.434 309.556 374.427 309.553 374.493 309.533C374.683 309.468 374.734 309.441 374.787 309.418C374.954 309.34 374.97 309.325 374.986 309.317C375.022 309.294 375.053 309.275 375.087 309.253C375.468 309.008 375.598 308.877 375.791 308.718C375.971 308.564 376.136 308.418 376.302 308.277C376.632 307.995 376.959 307.736 377.299 307.53C377.611 307.34 377.916 307.168 378.202 307.025C378.077 307.065 378.169 307.021 378.243 306.997C378.331 306.968 378.448 306.937 378.565 306.907C378.811 306.846 379.091 306.787 379.372 306.731C379.945 306.62 380.541 306.519 381.15 306.422C381.76 306.324 382.377 306.232 383.019 306.133C383.336 306.083 383.668 306.031 384.017 305.969C384.189 305.938 384.369 305.904 384.58 305.858C384.788 305.806 384.975 305.785 385.453 305.592C385.613 305.512 385.729 305.514 386.175 305.177C386.281 305.09 386.385 304.999 386.523 304.832C386.701 304.612 386.9 304.286 387.001 303.852C387.219 302.895 386.817 302.111 386.507 301.735C386.43 301.637 386.343 301.545 386.286 301.488C386.242 301.443 386.199 301.402 386.159 301.365C386.077 301.291 386.003 301.23 385.934 301.177C385.806 301.075 385.656 300.984 385.612 300.946C385.478 300.848 385.367 300.77 385.261 300.699C385.02 300.6 385.062 300.595 385.022 300.562C385 300.535 384.99 300.512 384.984 300.493C384.967 300.438 384.99 300.371 385.079 300.343C385.177 300.331 385.311 300.28 385.768 300.627C385.831 300.679 385.894 300.736 385.957 300.8C386.429 301.249 386.754 302.102 386.723 302.709C386.709 303.33 386.532 303.738 386.309 304.088C386.912 303.061 386.859 302.683 386.946 302.331C386.999 301.997 387.02 301.769 387.043 301.592C387.063 301.419 387.084 301.3 387.085 301.29C387.077 301.28 387.092 301.396 386.823 301.778C386.641 302.042 386.18 302.43 385.71 302.57C386.309 302.352 386.828 302.338 386.935 302.368C386.988 302.381 386.895 302.358 386.821 302.29C386.744 302.223 386.74 302.172 386.78 302.265C386.788 302.283 386.798 302.307 386.809 302.336C387.135 303.289 387.448 304.594 387.439 305.723C387.438 305.844 387.453 305.965 387.458 306.084C387.473 306.109 387.476 306.117 387.519 305.983C387.569 305.882 387.559 305.688 387.966 305.211C388.17 304.98 388.568 304.684 389.033 304.552C389.496 304.415 389.901 304.446 390.127 304.483C390.404 304.528 390.663 304.628 390.869 304.757C391.592 305.234 391.676 305.714 391.717 305.897C391.759 306.173 391.696 306.068 391.681 305.914C391.651 305.726 391.651 305.458 391.513 304.893C391.245 303.944 390.842 303.636 390.628 303.409C390.396 303.193 390.235 303.084 390.101 302.992C389.837 302.815 389.672 302.723 389.554 302.651C389.304 302.524 389.382 302.453 389.569 302.942C389.624 303.115 389.645 303.336 389.627 303.491C389.599 304.135 389.138 304.901 388.671 305.218C388.266 305.509 388.052 305.559 387.832 305.624C387.379 305.728 387.315 305.697 387.171 305.702C386.905 305.691 386.869 305.675 386.774 305.66C386.642 305.633 386.583 305.613 386.534 305.598C386.444 305.569 386.404 305.552 386.37 305.538C386.306 305.51 386.275 305.493 386.244 305.476C386.186 305.442 386.143 305.413 386.085 305.366C385.975 305.254 385.685 305.083 385.494 304.367C385.351 303.582 385.536 303.343 385.551 303.25C385.589 303.158 385.585 303.182 385.567 303.221C385.529 303.309 385.439 303.486 385.353 303.673C385.175 304.052 384.999 304.5 384.878 304.951C384.816 305.177 384.799 305.415 384.803 305.649C384.688 306.338 384.946 307.09 385.13 307.372C385.318 307.683 385.408 307.76 385.409 307.771C385.411 307.78 385.374 307.678 385.368 307.588C385.414 308.439 385.542 309.147 385.666 309.823C385.729 310.158 385.795 310.483 385.848 310.769C385.874 310.908 385.898 311.047 385.902 311.113C385.904 311.136 385.897 311.175 385.887 311.018C385.885 310.982 385.884 310.905 385.894 310.801C385.898 310.757 385.911 310.658 385.935 310.555C385.965 310.442 385.985 310.343 386.101 310.107C386.221 309.885 386.358 309.649 386.739 309.363C387.091 309.095 387.606 308.967 387.891 308.966C388.579 308.972 388.73 309.119 388.903 309.187C389.211 309.356 389.215 309.394 389.258 309.422C389.38 309.536 389.232 309.343 389.125 309.063C389.005 308.779 388.867 308.406 388.7 307.994C388.353 307.181 387.938 306.115 386.822 305.116C386.733 305.038 386.64 304.962 386.542 304.889C386.345 304.734 386.128 304.557 385.845 304.356C385.701 304.254 385.542 304.146 385.321 304.024C385.08 303.906 384.872 303.74 384.143 303.618C383.767 303.558 382.869 303.631 382.196 304.311C381.66 304.814 381.545 305.337 381.51 305.64C381.479 305.959 381.522 306.16 381.562 306.323C381.65 306.642 381.753 306.815 381.812 306.988C381.893 307.211 381.983 307.385 382.08 307.546C382.334 307.955 382.589 308.329 382.793 308.648C382.894 308.806 382.982 308.952 383.03 309.042C383.087 309.117 383.052 309.199 383.043 308.825C383.044 308.662 383.112 308.36 383.275 308.13C383.476 307.852 383.559 307.835 383.581 307.817C383.604 307.807 383.579 307.831 383.537 307.861C383.45 307.925 383.294 308.02 383.114 308.142C382.769 308.391 382.188 308.75 381.799 309.612C381.701 309.838 381.633 310.088 381.601 310.33C381.552 310.756 381.422 311.237 381.632 312.075C381.701 312.318 381.813 312.598 382.005 312.876C382.431 313.525 382.953 314.329 384.028 314.907C384.23 315.012 384.45 315.105 384.682 315.178C385.346 315.358 385.525 315.315 385.818 315.334C386.084 315.339 386.325 315.333 386.559 315.322C387.026 315.299 387.471 315.258 387.915 315.209C388.358 315.16 388.797 315.102 389.251 315.032C389.478 314.996 389.707 314.959 389.978 314.902C390.057 314.886 390.114 314.873 390.215 314.848C390.313 314.819 390.378 314.815 390.654 314.701C390.695 314.683 390.741 314.662 390.795 314.634C390.864 314.594 390.858 314.607 391.035 314.483C391.178 314.371 391.401 314.213 391.616 313.778C391.669 313.66 391.706 313.573 391.75 313.374C391.791 313.182 391.801 312.964 391.771 312.754C391.713 312.326 391.503 311.986 391.324 311.789C391.233 311.687 391.147 311.613 391.07 311.553C390.992 311.495 390.986 311.493 390.947 311.467C390.882 311.425 390.824 311.393 390.772 311.367C390.668 311.315 390.588 311.285 390.52 311.262C390.362 311.212 390.355 311.215 390.291 311.199C390.062 311.154 390.017 311.156 389.905 311.144C389.832 311.138 389.756 311.131 389.678 311.122C389.416 311.092 389.149 310.966 388.907 310.818C388.786 310.744 388.669 310.665 388.577 310.592C388.534 310.556 388.491 310.52 388.496 310.498C388.504 310.489 388.506 310.474 388.62 310.507C388.655 310.519 388.684 310.527 388.767 310.564C388.806 310.582 388.852 310.605 388.911 310.638C388.99 310.685 389.096 310.749 389.243 310.876C389.331 310.979 389.845 311.304 389.998 312.316C390.083 312.907 389.841 313.597 389.549 313.953C389.474 314.052 389.415 314.114 389.375 314.156C389.33 314.203 389.286 314.245 389.243 314.282C389.158 314.357 389.079 314.416 389.007 314.465C388.862 314.561 388.746 314.618 388.651 314.66C388.589 314.688 388.538 314.707 388.492 314.724C388.4 314.756 388.331 314.775 388.275 314.789C387.778 314.885 387.834 314.844 387.805 314.86C387.802 314.865 387.844 314.871 387.891 314.877C387.99 314.888 388.124 314.894 388.257 314.889C389.741 314.818 390.721 314.093 391.398 313.509C391.494 313.425 391.594 313.336 391.697 313.242C392.483 312.573 393.882 310.94 393.786 308.99C393.785 308.94 393.785 308.891 393.786 308.839C393.79 308.633 393.792 308.404 393.798 308.107C393.82 307.407 393.819 306.219 393.554 305.222C393.303 304.21 392.916 303.355 392.587 302.534C392.569 302.49 392.552 302.447 392.535 302.403C392.117 301.285 391.906 300.181 391.909 299.016Z" fill="#2C2F44"/>
<path d="M381.678 306.736C381.593 306.341 381.354 305.996 381.015 305.776C380.675 305.557 380.262 305.482 379.866 305.567C379.471 305.652 379.126 305.891 378.906 306.231C378.687 306.57 378.612 306.983 378.697 307.379C378.697 307.379 378.697 307.379 378.697 307.379C378.769 307.712 378.861 308.087 379.029 308.497C379.161 308.821 379.345 309.144 379.53 309.407C379.531 309.409 379.532 309.411 379.533 309.412C379.535 309.381 379.556 309.795 379.564 310.329C379.564 310.33 379.564 310.33 379.564 310.331C379.586 311.035 379.575 311.858 379.627 312.628C379.627 312.63 379.627 312.633 379.627 312.635C379.668 313.36 379.682 314.206 379.658 314.925C379.658 314.928 379.658 314.932 379.658 314.935C379.636 315.591 379.829 316.359 380.44 317.001C380.45 317.012 380.461 317.023 380.471 317.033C381.664 318.019 382.266 317.751 382.74 317.817C383.216 317.813 383.593 317.773 383.957 317.736C384.677 317.658 385.314 317.579 385.914 317.55C385.94 317.548 385.956 317.547 385.973 317.547C387.253 317.474 388.443 315.758 389.705 315.605C389.716 315.604 389.726 315.603 389.736 315.602C389.75 315.6 389.764 315.599 389.777 315.598C389.914 315.586 390.05 315.576 390.192 315.549C390.214 315.543 390.221 315.548 390.264 315.522C390.277 315.53 390.298 315.432 390.268 315.426C390.254 315.414 390.247 315.412 390.24 315.409C390.227 315.404 390.217 315.402 390.207 315.399C390.17 315.39 390.135 315.386 390.1 315.381C390.031 315.371 389.963 315.364 389.894 315.357C389.88 315.355 389.865 315.36 389.853 315.369C389.842 315.379 389.834 315.392 389.833 315.407C389.831 315.422 389.835 315.437 389.845 315.448C389.854 315.46 389.868 315.467 389.883 315.469C389.883 315.469 389.883 315.469 389.883 315.469C389.951 315.476 390.019 315.483 390.085 315.492C390.118 315.497 390.152 315.501 390.181 315.508C390.188 315.51 390.195 315.512 390.198 315.513C390.199 315.513 390.2 315.516 390.191 315.508C390.17 315.508 390.187 315.422 390.194 315.434C390.206 315.427 390.181 315.438 390.169 315.439C390.043 315.464 389.902 315.474 389.768 315.486C389.755 315.487 389.741 315.488 389.727 315.489C389.717 315.489 389.707 315.49 389.696 315.49C388.421 315.52 387.073 313.916 385.812 313.962C385.796 313.963 385.78 313.963 385.764 313.964C384.989 313.987 384.25 314.075 383.593 314.139C383.268 314.171 382.956 314.196 382.739 314.195C382.633 314.195 382.55 314.184 382.562 314.184C382.566 314.192 382.737 314.182 383.045 314.47C383.049 314.474 383.053 314.478 383.057 314.483C383.294 314.736 383.328 314.947 383.327 315.071C383.327 315.066 383.327 315.062 383.328 315.057C383.355 314.108 383.322 313.281 383.243 312.342C383.243 312.34 383.242 312.338 383.242 312.335C383.164 311.54 383.033 310.795 382.886 309.937C382.886 309.937 382.885 309.936 382.885 309.935C382.76 309.377 382.661 308.635 382.036 307.669C382.035 307.668 382.035 307.667 382.034 307.667C381.947 307.541 381.896 307.448 381.848 307.333C381.789 307.191 381.732 306.986 381.678 306.736Z" fill="#2C2F44"/>
<path d="M380.632 308.32C380.762 307.929 380.732 307.502 380.548 307.134C380.363 306.765 380.04 306.485 379.649 306.355C379.258 306.225 378.831 306.255 378.463 306.44C378.095 306.624 377.814 306.948 377.684 307.338C377.684 307.338 377.684 307.338 377.684 307.338C377.678 307.369 377.601 307.512 377.393 307.737C377.228 307.931 377.009 308.089 376.643 308.627C376.637 308.638 376.631 308.648 376.624 308.658C376.337 309.134 376.195 309.475 376.038 309.785C375.891 310.084 375.735 310.357 375.662 310.433C375.653 310.447 375.643 310.46 375.634 310.474C375.145 311.207 375.028 311.956 375.048 311.75C375.044 311.756 375.04 311.761 375.036 311.767C374.822 312.097 374.374 312.585 373.943 313.151C373.939 313.156 373.935 313.162 373.931 313.167C373.511 313.701 372.467 314.409 371.52 315.064C371.514 315.068 371.508 315.072 371.502 315.076C370.109 316.014 368.493 316.974 366.917 318.086C366.914 318.088 366.91 318.091 366.907 318.093C365.624 319.051 364.427 320.078 363.464 321.882L363.447 321.913C363.446 321.914 363.445 321.916 363.445 321.917C363.367 322.101 363.63 322.443 363.846 322.741C364.004 322.961 364.133 323.164 364.077 323.275C364.077 323.275 364.077 323.276 364.077 323.276C363.959 323.499 363.829 323.715 363.697 323.934C363.68 323.962 363.675 323.996 363.683 324.029C363.691 324.061 363.711 324.089 363.74 324.106C363.768 324.123 363.802 324.129 363.835 324.121C363.867 324.113 363.895 324.092 363.912 324.064C363.912 324.064 363.912 324.064 363.912 324.064C364.044 323.845 364.178 323.623 364.299 323.394C364.299 323.393 364.299 323.393 364.3 323.392C364.36 323.282 364.602 323.262 364.873 323.259C365.241 323.254 365.658 323.294 365.744 323.18C365.745 323.179 365.746 323.178 365.746 323.177L365.729 323.207C366.389 322.485 367.724 321.762 368.88 321.036C368.883 321.034 368.886 321.032 368.889 321.03C370.37 320.105 371.966 319.273 373.623 318.163C373.631 318.157 373.639 318.152 373.646 318.147C374.698 317.382 375.751 316.711 376.826 315.27C376.835 315.258 376.844 315.245 376.852 315.232C377.179 314.733 377.572 314.209 378.001 313.397C378.009 313.38 378.017 313.364 378.025 313.348C378.252 312.892 378.298 312.577 378.339 312.432C378.375 312.279 378.378 312.274 378.367 312.273C378.367 312.273 378.366 312.273 378.366 312.273C378.937 311.315 379.06 310.602 379.265 310.295C379.266 310.293 379.268 310.291 379.269 310.289C379.232 310.327 379.459 310.076 379.692 309.826C379.994 309.49 380.397 309.017 380.632 308.32Z" fill="#2C2F44"/>
<path d="M277.031 288L281.031 169.5C285.031 175.9 356.698 180.167 392.031 181.5C389.531 210.167 384.631 268.8 385.031 274C385.431 279.2 392.198 279.5 395.531 279C395.531 280.167 395.831 283.1 397.031 285.5C398.231 287.9 401.198 288.167 402.531 288V299.5C389.698 299.833 363.031 300 359.031 298C355.031 296 351.698 248.167 350.531 224.5L331.531 222L321.531 298C318.198 297.667 308.531 296.9 296.531 296.5C284.531 296.1 278.531 290.667 277.031 288Z" fill="#23CEBC"/>
<path d="M316.805 207.91C316.805 208.747 317.54 209.597 318.072 210.191C318.714 210.909 319.01 211.89 319.72 212.599C321.366 214.246 322.939 215.706 324.86 217.035C326.847 218.411 328.6 219.087 330.844 219.95C332.631 220.637 335.022 221.598 336.956 221.598C340.061 221.598 343.167 222.105 346.334 222.105C347.728 222.105 349.123 222.105 350.517 222.105C351.205 222.105 354.229 221.046 353.812 220.837" stroke="#2C2F44" stroke-width="5" stroke-linecap="round"/>
</svg>
